<?xml version="1.0" encoding="utf-8" standalone="no"?>
<!DOCTYPE svg PUBLIC "-//W3C//DTD SVG 1.1//EN"
  "http://www.w3.org/Graphics/SVG/1.1/DTD/svg11.dtd">
<svg xmlns:xlink="http://www.w3.org/1999/xlink" width="782.64pt" height="459.1pt" viewBox="0 0 782.64 459.1" xmlns="http://www.w3.org/2000/svg" version="1.1">
 <metadata>
  <rdf:RDF xmlns:dc="http://purl.org/dc/elements/1.1/" xmlns:cc="http://creativecommons.org/ns#" xmlns:rdf="http://www.w3.org/1999/02/22-rdf-syntax-ns#">
   <cc:Work>
    <dc:type rdf:resource="http://purl.org/dc/dcmitype/StillImage"/>
    <dc:date>2026-09-13T06:42:36.042343</dc:date>
    <dc:format>image/svg+xml</dc:format>
    <dc:creator>
     <cc:Agent>
      <dc:title>Matplotlib v3.10.9, https://matplotlib.org/</dc:title>
     </cc:Agent>
    </dc:creator>
   </cc:Work>
  </rdf:RDF>
 </metadata>
 <defs>
  <style type="text/css">*{stroke-linejoin: round; stroke-linecap: butt}</style>
 </defs>
 <g id="figure_1">
  <g id="patch_1">
   <path d="M 0 459.1 
L 782.64 459.1 
L 782.64 -0 
L 0 -0 
z
" style="fill: #0b1120"/>
  </g>
  <g id="axes_1">
   <g id="patch_2">
    <path d="M 80.1828 173.2403 
L 702.4572 173.2403 
Q 721.6632 173.2403 721.6632 162.84255 
L 721.6632 100.45605 
Q 721.6632 90.0583 702.4572 90.0583 
L 80.1828 90.0583 
Q 60.9768 90.0583 60.9768 100.45605 
L 60.9768 162.84255 
Q 60.9768 173.2403 80.1828 173.2403 
z
" clip-path="url(#p9e450920c0)" style="fill: #4ade80; stroke: #334155; stroke-width: 1.4; stroke-linejoin: miter"/>
   </g>
   <g id="patch_3">
    <path d="M 126.2772 273.0587 
L 656.3628 273.0587 
Q 675.5688 273.0587 675.5688 262.66095 
L 675.5688 200.27445 
Q 675.5688 189.8767 656.3628 189.8767 
L 126.2772 189.8767 
Q 107.0712 189.8767 107.0712 200.27445 
L 107.0712 262.66095 
Q 107.0712 273.0587 126.2772 273.0587 
z
" clip-path="url(#p9e450920c0)" style="fill: #60a5fa; stroke: #334155; stroke-width: 1.4; stroke-linejoin: miter"/>
   </g>
   <g id="patch_4">
    <path d="M 172.3716 372.8771 
L 610.2684 372.8771 
Q 629.4744 372.8771 629.4744 362.47935 
L 629.4744 300.09285 
Q 629.4744 289.6951 610.2684 289.6951 
L 172.3716 289.6951 
Q 153.1656 289.6951 153.1656 300.09285 
L 153.1656 362.47935 
Q 153.1656 372.8771 172.3716 372.8771 
z
" clip-path="url(#p9e450920c0)" style="fill: #fb923c; stroke: #334155; stroke-width: 1.4; stroke-linejoin: miter"/>
   </g>
   <g id="text_1">
    <!-- 10-seed 主实验 -->
    <g style="fill: #e5edf7" transform="translate(348.4875 120.459862) scale(0.12 -0.12)">
     <defs>
      <path id="MicrosoftYaHei-31" d="M 1781 0 
L 1781 4141 
Q 1638 3997 1295 3819 
Q 953 3641 663 3569 
L 663 4169 
Q 1047 4275 1484 4508 
Q 1922 4741 2156 4947 
L 2388 4947 
L 2388 0 
L 1781 0 
z
" transform="scale(0.015625)"/>
      <path id="MicrosoftYaHei-30" d="M 284 2325 
Q 284 3606 709 4264 
Q 1134 4922 1941 4922 
Q 3478 4922 3478 2441 
Q 3478 1216 3045 567 
Q 2613 -81 1831 -81 
Q 1094 -81 689 534 
Q 284 1150 284 2325 
z
M 909 2353 
Q 909 425 1888 425 
Q 2850 425 2850 2384 
Q 2850 4413 1906 4413 
Q 909 4413 909 2353 
z
" transform="scale(0.015625)"/>
      <path id="MicrosoftYaHei-2d" d="M 2328 1681 
L 488 1681 
L 488 2153 
L 2328 2153 
L 2328 1681 
z
" transform="scale(0.015625)"/>
      <path id="MicrosoftYaHei-73" d="M 353 747 
Q 816 413 1350 413 
Q 2066 413 2066 881 
Q 2066 1081 1909 1211 
Q 1753 1341 1275 1519 
Q 700 1750 528 1976 
Q 356 2203 356 2525 
Q 356 2984 745 3261 
Q 1134 3538 1703 3538 
Q 2144 3538 2522 3384 
L 2522 2794 
Q 2134 3044 1644 3044 
Q 1350 3044 1165 2916 
Q 981 2788 981 2578 
Q 981 2372 1114 2256 
Q 1247 2141 1703 1959 
Q 2281 1744 2484 1512 
Q 2688 1281 2688 941 
Q 2688 466 2298 192 
Q 1909 -81 1291 -81 
Q 753 -81 353 122 
L 353 747 
z
" transform="scale(0.015625)"/>
      <path id="MicrosoftYaHei-65" d="M 3363 1572 
L 944 1572 
Q 959 1019 1246 717 
Q 1534 416 2050 416 
Q 2631 416 3116 788 
L 3116 241 
Q 2659 -81 1906 -81 
Q 1156 -81 736 394 
Q 316 869 316 1713 
Q 316 2506 777 3022 
Q 1238 3538 1922 3538 
Q 2600 3538 2981 3102 
Q 3363 2666 3363 1881 
L 3363 1572 
z
M 2750 2063 
Q 2747 2531 2528 2787 
Q 2309 3044 1913 3044 
Q 1547 3044 1280 2772 
Q 1013 2500 944 2063 
L 2750 2063 
z
" transform="scale(0.015625)"/>
      <path id="MicrosoftYaHei-64" d="M 3547 0 
L 2934 0 
L 2934 575 
L 2922 575 
Q 2544 -81 1747 -81 
Q 1091 -81 703 386 
Q 316 853 316 1647 
Q 316 2503 753 3020 
Q 1191 3538 1897 3538 
Q 2603 3538 2922 2988 
L 2934 2988 
L 2934 5116 
L 3547 5116 
L 3547 0 
z
M 2938 2056 
Q 2938 2472 2664 2751 
Q 2391 3031 1991 3031 
Q 1503 3031 1222 2667 
Q 941 2303 941 1675 
Q 941 1097 1211 761 
Q 1481 425 1931 425 
Q 2375 425 2656 754 
Q 2938 1084 2938 1575 
L 2938 2056 
z
" transform="scale(0.015625)"/>
      <path id="MicrosoftYaHei-20" transform="scale(0.015625)"/>
      <path id="MicrosoftYaHei-4e3b" d="M 150 9 
L 2931 9 
L 2931 1809 
L 644 1809 
L 644 2284 
L 2931 2284 
L 2931 3709 
L 400 3709 
L 400 4184 
L 5975 4184 
L 5975 3709 
L 3469 3709 
L 3469 2284 
L 5756 2284 
L 5756 1809 
L 3469 1809 
L 3469 9 
L 6250 9 
L 6250 -453 
L 150 -453 
L 150 9 
z
M 2694 5109 
L 3156 5347 
Q 3538 4778 3706 4466 
L 3213 4203 
Q 2875 4828 2694 5109 
z
" transform="scale(0.015625)"/>
      <path id="MicrosoftYaHei-5b9e" d="M 113 -397 
Q 2419 34 3081 972 
L 213 972 
L 213 1434 
L 3313 1434 
Q 3525 2084 3506 3703 
L 4031 3703 
Q 4031 2097 3856 1434 
L 6225 1434 
L 6225 972 
L 3681 972 
Q 3631 872 3563 759 
Q 4900 197 6181 -403 
L 5906 -878 
Q 4569 -197 3263 391 
Q 2413 -441 413 -891 
Q 269 -616 113 -397 
z
M 331 4422 
L 3194 4422 
Q 3038 4703 2775 5078 
L 3231 5334 
Q 3438 5059 3731 4609 
L 3388 4422 
L 6063 4422 
L 6063 3303 
L 5563 3303 
L 5563 3959 
L 831 3959 
L 831 3303 
L 331 3303 
L 331 4422 
z
M 1100 2734 
Q 1819 2409 2450 2053 
L 2181 1622 
Q 1556 2003 863 2334 
L 1100 2734 
z
M 1663 3691 
Q 2388 3341 2981 2984 
L 2700 2559 
Q 2119 2934 1419 3322 
L 1663 3691 
z
" transform="scale(0.015625)"/>
      <path id="MicrosoftYaHei-9a8c" d="M 963 4116 
L 819 2397 
L 1450 2397 
L 1613 4503 
L 194 4503 
L 194 4928 
L 2088 4928 
L 1894 2397 
L 2288 2397 
Q 2244 1078 2206 228 
Q 2188 -722 1381 -722 
Q 1044 -722 588 -703 
Q 556 -472 506 -209 
Q 956 -266 1306 -266 
Q 1744 -266 1769 266 
Q 1806 953 1831 1972 
L 331 1972 
L 531 4116 
L 963 4116 
z
M 2338 -103 
L 4594 -103 
Q 5044 1009 5394 2222 
L 5869 2072 
Q 5500 953 5088 -103 
L 6188 -103 
L 6188 -534 
L 2338 -534 
L 2338 -103 
z
M 4606 5278 
L 4488 5078 
Q 5244 3734 6363 3122 
Q 6163 2872 6031 2684 
Q 4931 3497 4238 4641 
Q 3600 3509 2456 2609 
Q 2344 2772 2144 3003 
Q 3388 3866 4050 5278 
L 4606 5278 
z
M 2975 2978 
L 5550 2978 
L 5550 2547 
L 2975 2547 
L 2975 2978 
z
M 3731 2178 
L 4175 2297 
Q 4438 1359 4606 659 
L 4150 528 
Q 3969 1391 3731 2178 
z
M 2656 1897 
L 3094 2034 
Q 3400 1147 3606 453 
L 3144 297 
Q 2938 1097 2656 1897 
z
M 38 1034 
Q 763 1178 1631 1384 
Q 1625 1134 1638 941 
Q 925 791 131 572 
L 38 1034 
z
" transform="scale(0.015625)"/>
     </defs>
     <use xlink:href="#MicrosoftYaHei-31"/>
     <use xlink:href="#MicrosoftYaHei-30" transform="translate(58.642578 0)"/>
     <use xlink:href="#MicrosoftYaHei-2d" transform="translate(117.285156 0)"/>
     <use xlink:href="#MicrosoftYaHei-73" transform="translate(160.546875 0)"/>
     <use xlink:href="#MicrosoftYaHei-65" transform="translate(206.835938 0)"/>
     <use xlink:href="#MicrosoftYaHei-65" transform="translate(263.574219 0)"/>
     <use xlink:href="#MicrosoftYaHei-64" transform="translate(320.3125 0)"/>
     <use xlink:href="#MicrosoftYaHei-20" transform="translate(384.277344 0)"/>
     <use xlink:href="#MicrosoftYaHei-4e3b" transform="translate(413.867188 0)"/>
     <use xlink:href="#MicrosoftYaHei-5b9e" transform="translate(513.867188 0)"/>
     <use xlink:href="#MicrosoftYaHei-9a8c" transform="translate(613.867188 0)"/>
    </g>
    <!-- 平均性能 / 配对差异 / 显著性 -->
    <g style="fill: #e5edf7" transform="translate(313.09125 134.953987) scale(0.12 -0.12)">
     <defs>
      <path id="MicrosoftYaHei-5e73" d="M 169 1934 
L 2938 1934 
L 2938 4547 
L 450 4547 
L 450 5028 
L 5975 5028 
L 5975 4547 
L 3463 4547 
L 3463 1934 
L 6250 1934 
L 6250 1453 
L 3463 1453 
L 3463 -847 
L 2938 -847 
L 2938 1453 
L 169 1453 
L 169 1934 
z
M 3950 2559 
Q 4638 3284 5188 4159 
L 5656 3859 
Q 4950 2891 4338 2234 
L 3950 2559 
z
M 769 3859 
L 1163 4134 
Q 1863 3316 2369 2553 
L 1925 2222 
Q 1444 3003 769 3859 
z
" transform="scale(0.015625)"/>
      <path id="MicrosoftYaHei-5747" d="M 2244 2803 
Q 2931 3953 3338 5322 
L 3838 5172 
Q 3691 4744 3531 4347 
L 6013 4347 
Q 5925 1053 5875 297 
Q 5831 -697 4806 -697 
Q 4188 -697 3706 -672 
Q 3669 -422 3606 -141 
L 3625 -141 
Q 4250 -209 4775 -209 
Q 5350 -209 5394 378 
Q 5456 1447 5513 3891 
L 3341 3891 
Q 3028 3172 2675 2572 
Q 2481 2691 2244 2803 
z
M 81 428 
Q 559 600 1006 769 
L 1006 3253 
L 169 3253 
L 169 3697 
L 1006 3697 
L 1006 5259 
L 1469 5259 
L 1469 3697 
L 2281 3697 
L 2281 3253 
L 1469 3253 
L 1469 947 
Q 1922 1125 2338 1303 
Q 2350 991 2369 784 
Q 1363 403 250 -53 
L 81 428 
z
M 2513 853 
Q 3769 1353 5119 1934 
Q 5150 1641 5188 1434 
Q 4031 947 2706 359 
L 2513 853 
z
M 3138 2909 
L 3481 3216 
Q 4025 2716 4531 2216 
L 4125 1859 
Q 3644 2409 3138 2909 
z
" transform="scale(0.015625)"/>
      <path id="MicrosoftYaHei-6027" d="M 1963 -153 
L 3988 -153 
L 3988 1522 
L 2375 1522 
L 2375 1959 
L 3988 1959 
L 3988 3472 
L 2975 3472 
Q 2744 2878 2438 2291 
Q 2169 2509 2019 2578 
Q 2644 3709 2894 4891 
L 3388 4759 
Q 3281 4328 3138 3909 
L 3988 3909 
L 3988 5284 
L 4481 5284 
L 4481 3909 
L 6125 3909 
L 6125 3472 
L 4481 3472 
L 4481 1959 
L 6000 1959 
L 6000 1522 
L 4481 1522 
L 4481 -153 
L 6319 -153 
L 6319 -591 
L 1963 -591 
L 1963 -153 
z
M 988 5291 
L 1469 5291 
L 1469 4091 
L 1738 4241 
Q 2063 3734 2294 3291 
L 1906 3041 
Q 1688 3503 1469 3859 
L 1469 -872 
L 988 -872 
L 988 5291 
z
M 406 3878 
L 819 3784 
Q 706 3028 506 2178 
Q 338 2241 75 2297 
Q 263 2978 406 3878 
z
" transform="scale(0.015625)"/>
      <path id="MicrosoftYaHei-80fd" d="M 950 -759 
L 463 -759 
L 463 2928 
L 3000 2928 
L 3000 -28 
Q 3000 -703 2375 -703 
Q 2100 -709 1669 -709 
Q 1638 -516 1575 -234 
Q 1969 -266 2206 -266 
Q 2513 -266 2513 53 
L 2513 572 
L 950 572 
L 950 -759 
z
M 3606 2253 
L 4094 2253 
L 4094 1222 
Q 4981 1553 5950 2091 
L 6231 1659 
Q 5209 1122 4094 706 
L 4094 166 
Q 4094 -228 4400 -228 
L 5319 -228 
Q 5638 -228 5688 78 
Q 5731 353 5763 897 
Q 6000 803 6250 722 
Q 6200 172 6144 -109 
Q 6063 -659 5363 -659 
L 4319 -659 
Q 3606 -659 3606 72 
L 3606 2253 
z
M 3619 5303 
L 4106 5303 
L 4106 4231 
Q 4966 4572 5813 5053 
L 6094 4622 
Q 5119 4128 4106 3719 
L 4106 3359 
Q 4106 2941 4438 2941 
L 5231 2941 
Q 5625 2941 5675 3266 
Q 5719 3534 5750 4047 
Q 5988 3953 6238 3866 
Q 6188 3366 6131 3053 
Q 6038 2509 5288 2509 
L 4375 2509 
Q 3619 2509 3619 3259 
L 3619 5303 
z
M 2463 4772 
Q 3031 4034 3450 3353 
Q 3213 3191 3019 3066 
Q 2897 3281 2759 3506 
Q 1231 3394 313 3303 
L 113 3828 
Q 388 3978 719 4391 
Q 1063 4841 1394 5397 
L 1888 5216 
Q 1369 4466 794 3797 
Q 1731 3856 2497 3919 
Q 2300 4216 2075 4528 
L 2463 4772 
z
M 950 947 
L 2513 947 
L 2513 1553 
L 950 1553 
L 950 947 
z
M 2513 2528 
L 950 2528 
L 950 1928 
L 2513 1928 
L 2513 2528 
z
" transform="scale(0.015625)"/>
      <path id="MicrosoftYaHei-2f" d="M 2791 4841 
L 469 -803 
L -103 -803 
L 2219 4841 
L 2791 4841 
z
" transform="scale(0.015625)"/>
      <path id="MicrosoftYaHei-914d" d="M 388 3697 
L 1244 3697 
L 1244 4516 
L 194 4516 
L 194 4928 
L 3506 4928 
L 3506 4516 
L 2469 4516 
L 2469 3697 
L 3375 3697 
L 3375 -766 
L 2956 -766 
L 2956 -366 
L 806 -366 
L 806 -772 
L 388 -772 
L 388 3697 
z
M 3831 2916 
L 5488 2916 
L 5488 4541 
L 3725 4541 
L 3725 4978 
L 5938 4978 
L 5938 2234 
L 5488 2234 
L 5488 2478 
L 4281 2478 
L 4281 316 
Q 4281 -178 4706 -178 
L 5300 -178 
Q 5669 -178 5719 191 
Q 5800 609 5831 1203 
Q 6006 1116 6300 997 
Q 6256 491 6169 34 
Q 6063 -628 5381 -628 
L 4575 -628 
Q 3831 -628 3831 253 
L 3831 2916 
z
M 2069 2291 
L 2069 3297 
L 1644 3297 
L 1644 3047 
Q 1644 2047 1125 1391 
Q 975 1538 806 1697 
L 806 1178 
L 2956 1178 
L 2956 1778 
L 2513 1778 
Q 2069 1778 2069 2291 
z
M 806 34 
L 2956 34 
L 2956 784 
L 806 784 
L 806 34 
z
M 2956 3297 
L 2469 3297 
L 2469 2428 
Q 2456 2147 2700 2166 
L 2956 2166 
L 2956 3297 
z
M 806 1738 
Q 1244 2234 1244 3078 
L 1244 3297 
L 806 3297 
L 806 1738 
z
M 1644 3697 
L 2069 3697 
L 2069 4516 
L 1644 4516 
L 1644 3697 
z
" transform="scale(0.015625)"/>
      <path id="MicrosoftYaHei-5bf9" d="M 694 3691 
Q 1234 2909 1741 2166 
Q 2113 3081 2213 4147 
L 250 4147 
L 250 4622 
L 2725 4622 
L 2725 4166 
Q 2553 2809 2059 1700 
Q 2569 953 3044 247 
L 2594 -53 
Q 2203 563 1803 1181 
Q 1247 163 388 -622 
Q 263 -428 81 -166 
Q 975 638 1500 1647 
Q 919 2538 319 3434 
L 694 3691 
z
M 2975 3941 
L 5056 3941 
L 5056 5278 
L 5563 5278 
L 5563 3941 
L 6325 3941 
L 6325 3466 
L 5563 3466 
L 5563 191 
Q 5563 -716 4669 -716 
Q 4388 -716 3744 -709 
Q 3713 -478 3644 -147 
Q 4263 -197 4588 -197 
Q 5056 -197 5056 278 
L 5056 3466 
L 2975 3466 
L 2975 3941 
z
M 3088 2684 
L 3494 2928 
Q 4000 2184 4388 1484 
L 3919 1216 
Q 3550 1922 3088 2684 
z
" transform="scale(0.015625)"/>
      <path id="MicrosoftYaHei-5dee" d="M 1094 -172 
L 3419 -172 
L 3419 891 
L 1813 891 
L 1813 1088 
Q 1200 394 331 -197 
Q 206 3 31 247 
Q 1213 1028 1859 1984 
L 200 1984 
L 200 2409 
L 2119 2409 
Q 2275 2694 2409 3028 
L 638 3028 
L 638 3447 
L 2569 3447 
Q 2666 3728 2750 4041 
L 488 4041 
L 488 4466 
L 2075 4466 
Q 1813 4797 1513 5122 
L 1869 5397 
Q 2231 5047 2563 4672 
L 2278 4466 
L 4219 4466 
L 3975 4684 
Q 4344 5047 4631 5403 
L 5056 5122 
Q 4738 4772 4413 4466 
L 6050 4466 
L 6050 4041 
L 3291 4041 
Q 3206 3731 3109 3447 
L 5813 3447 
L 5813 3028 
L 2963 3028 
Q 2838 2700 2697 2409 
L 6294 2409 
L 6294 1984 
L 2469 1984 
Q 2259 1634 1997 1309 
L 5613 1309 
L 5613 891 
L 3925 891 
L 3925 -172 
L 6213 -172 
L 6213 -597 
L 1094 -597 
L 1094 -172 
z
" transform="scale(0.015625)"/>
      <path id="MicrosoftYaHei-5f02" d="M 1731 2547 
L 5050 2547 
Q 5531 2547 5619 2878 
Q 5694 3141 5756 3572 
Q 5988 3472 6250 3378 
Q 6131 2866 6075 2684 
Q 5913 2109 5163 2109 
L 1619 2109 
Q 819 2109 819 2922 
L 819 5016 
L 5338 5016 
L 5338 3116 
L 4856 3116 
L 4856 3328 
L 1300 3328 
L 1300 2972 
Q 1300 2547 1731 2547 
z
M 4256 1922 
L 4750 1922 
L 4750 1178 
L 6250 1178 
L 6250 741 
L 4750 741 
L 4750 -841 
L 4256 -841 
L 4256 741 
L 2125 741 
Q 2050 -322 663 -866 
Q 513 -672 319 -441 
Q 1538 -22 1622 741 
L 144 741 
L 144 1178 
L 1678 1178 
Q 1703 1500 1700 1928 
L 2194 1928 
Q 2194 1509 2172 1178 
L 4256 1178 
L 4256 1922 
z
M 1300 4584 
L 1300 3759 
L 4856 3759 
L 4856 4584 
L 1300 4584 
z
" transform="scale(0.015625)"/>
      <path id="MicrosoftYaHei-663e" d="M 875 5041 
L 5525 5041 
L 5525 2209 
L 5044 2209 
L 5044 2434 
L 1356 2434 
L 1356 2209 
L 875 2209 
L 875 5041 
z
M 156 -147 
L 2238 -147 
L 2238 2259 
L 2713 2259 
L 2713 -147 
L 3656 -147 
L 3656 2259 
L 4131 2259 
L 4131 -147 
L 6244 -147 
L 6244 -597 
L 156 -597 
L 156 -147 
z
M 5044 4591 
L 1356 4591 
L 1356 3947 
L 5044 3947 
L 5044 4591 
z
M 1356 2884 
L 5044 2884 
L 5044 3528 
L 1356 3528 
L 1356 2884 
z
M 506 1734 
L 875 2009 
Q 1519 1178 1888 597 
L 1456 284 
Q 1038 984 506 1734 
z
M 5925 1753 
Q 5413 941 4938 309 
L 4531 591 
Q 5006 1216 5481 2009 
L 5925 1753 
z
" transform="scale(0.015625)"/>
      <path id="MicrosoftYaHei-8457" d="M 63 1159 
Q 1588 1578 2994 2278 
L 200 2278 
L 200 2691 
L 2788 2691 
L 2788 3247 
L 863 3247 
L 863 3647 
L 2788 3647 
L 2788 4103 
L 3263 4103 
L 3263 3647 
L 4600 3647 
L 4600 3247 
L 3263 3247 
L 3263 2691 
L 3769 2691 
Q 4669 3200 5519 3828 
L 5850 3491 
Q 5250 3069 4619 2691 
L 6244 2691 
L 6244 2278 
L 3897 2278 
Q 3347 1978 2772 1709 
L 5400 1709 
L 5400 -822 
L 4938 -822 
L 4938 -528 
L 1825 -528 
L 1825 -822 
L 1363 -822 
L 1363 1106 
Q 841 906 300 728 
Q 250 834 63 1159 
z
M 200 4778 
L 1863 4778 
L 1863 5328 
L 2338 5328 
L 2338 4778 
L 4050 4778 
L 4050 5328 
L 4525 5328 
L 4525 4778 
L 6213 4778 
L 6213 4366 
L 4525 4366 
L 4525 3966 
L 4050 3966 
L 4050 4366 
L 2338 4366 
L 2338 3966 
L 1863 3966 
L 1863 4366 
L 200 4366 
L 200 4778 
z
M 1825 -128 
L 4938 -128 
L 4938 397 
L 1825 397 
L 1825 -128 
z
M 4938 1309 
L 1866 1309 
Q 1844 1300 1825 1291 
L 1825 784 
L 4938 784 
L 4938 1309 
z
" transform="scale(0.015625)"/>
     </defs>
     <use xlink:href="#MicrosoftYaHei-5e73"/>
     <use xlink:href="#MicrosoftYaHei-5747" transform="translate(100 0)"/>
     <use xlink:href="#MicrosoftYaHei-6027" transform="translate(200 0)"/>
     <use xlink:href="#MicrosoftYaHei-80fd" transform="translate(300 0)"/>
     <use xlink:href="#MicrosoftYaHei-20" transform="translate(400 0)"/>
     <use xlink:href="#MicrosoftYaHei-2f" transform="translate(429.589844 0)"/>
     <use xlink:href="#MicrosoftYaHei-20" transform="translate(472.314453 0)"/>
     <use xlink:href="#MicrosoftYaHei-914d" transform="translate(501.904297 0)"/>
     <use xlink:href="#MicrosoftYaHei-5bf9" transform="translate(601.904297 0)"/>
     <use xlink:href="#MicrosoftYaHei-5dee" transform="translate(701.904297 0)"/>
     <use xlink:href="#MicrosoftYaHei-5f02" transform="translate(801.904297 0)"/>
     <use xlink:href="#MicrosoftYaHei-20" transform="translate(901.904297 0)"/>
     <use xlink:href="#MicrosoftYaHei-2f" transform="translate(931.494141 0)"/>
     <use xlink:href="#MicrosoftYaHei-20" transform="translate(974.21875 0)"/>
     <use xlink:href="#MicrosoftYaHei-663e" transform="translate(1003.808594 0)"/>
     <use xlink:href="#MicrosoftYaHei-8457" transform="translate(1103.808594 0)"/>
     <use xlink:href="#MicrosoftYaHei-6027" transform="translate(1203.808594 0)"/>
    </g>
    <!-- 可支持统计结论 -->
    <g style="fill: #e5edf7" transform="translate(349.32 149.448112) scale(0.12 -0.12)">
     <defs>
      <path id="MicrosoftYaHei-53ef" d="M 813 3409 
L 3569 3409 
L 3569 941 
L 1306 941 
L 1306 497 
L 813 497 
L 813 3409 
z
M 119 4809 
L 6294 4809 
L 6294 4334 
L 5256 4334 
L 5256 103 
Q 5256 -741 4438 -747 
Q 3850 -747 3294 -741 
Q 3263 -453 3194 -172 
Q 3900 -222 4269 -222 
Q 4731 -222 4731 278 
L 4731 4334 
L 119 4334 
L 119 4809 
z
M 3075 2966 
L 1306 2966 
L 1306 1384 
L 3075 1384 
L 3075 2966 
z
" transform="scale(0.015625)"/>
      <path id="MicrosoftYaHei-652f" d="M 163 4434 
L 3000 4434 
L 3000 5334 
L 3513 5334 
L 3513 4434 
L 6219 4434 
L 6219 3978 
L 3513 3978 
L 3513 3053 
L 5275 3053 
L 5275 2622 
Q 4713 1378 3681 544 
Q 4703 -9 6306 -241 
Q 6081 -553 5950 -784 
Q 4166 -431 3209 213 
Q 2188 -419 419 -878 
Q 294 -591 144 -384 
Q 1847 -3 2797 531 
Q 1891 1309 1394 2597 
L 775 2597 
L 775 3053 
L 3000 3053 
L 3000 3978 
L 163 3978 
L 163 4434 
z
M 4669 2597 
L 1922 2597 
Q 2378 1469 3241 822 
Q 4209 1556 4669 2597 
z
" transform="scale(0.015625)"/>
      <path id="MicrosoftYaHei-6301" d="M 88 1978 
Q 563 2084 963 2181 
L 963 3647 
L 144 3647 
L 144 4097 
L 963 4097 
L 963 5303 
L 1450 5303 
L 1450 4097 
L 2250 4097 
L 2250 3647 
L 1450 3647 
L 1450 2303 
Q 1841 2406 2138 2497 
Q 2144 2272 2181 2009 
Q 1791 1906 1450 1813 
L 1450 -72 
Q 1450 -772 813 -772 
Q 619 -772 219 -759 
Q 194 -503 138 -241 
Q 531 -284 706 -284 
Q 963 -284 963 9 
L 963 1678 
Q 500 1547 150 1441 
L 88 1978 
z
M 2175 3097 
L 3975 3097 
L 3975 3972 
L 2531 3972 
L 2531 4422 
L 3975 4422 
L 3975 5303 
L 4463 5303 
L 4463 4422 
L 5925 4422 
L 5925 3972 
L 4463 3972 
L 4463 3097 
L 6319 3097 
L 6319 2647 
L 2175 2647 
L 2175 3097 
z
M 2200 1797 
L 4844 1797 
L 4844 2434 
L 5331 2434 
L 5331 1797 
L 6263 1797 
L 6263 1347 
L 5331 1347 
L 5331 -72 
Q 5331 -759 4688 -766 
Q 4300 -772 3763 -759 
Q 3738 -553 3694 -266 
Q 4169 -316 4544 -316 
Q 4844 -316 4844 22 
L 4844 1347 
L 2200 1347 
L 2200 1797 
z
M 2594 972 
L 2944 1228 
Q 3406 741 3731 309 
L 3313 16 
Q 3006 491 2594 972 
z
" transform="scale(0.015625)"/>
      <path id="MicrosoftYaHei-7edf" d="M 5100 3641 
Q 5625 2934 6175 2047 
Q 5956 1922 5713 1766 
Q 5556 2031 5413 2275 
Q 5122 2256 4813 2241 
L 4813 122 
Q 4813 -259 5094 -259 
L 5400 -259 
Q 5706 -259 5750 53 
Q 5800 428 5813 866 
Q 6019 778 6313 684 
Q 6263 141 6206 -159 
Q 6119 -703 5550 -703 
L 5013 -703 
Q 4331 -703 4331 78 
L 4331 2213 
Q 3981 2194 3606 2169 
Q 3556 809 3256 272 
Q 2900 -416 1925 -866 
Q 1788 -672 1606 -447 
Q 2513 -78 2819 522 
Q 3100 1000 3122 2138 
Q 2994 2128 2863 2122 
Q 2594 2097 2363 2041 
L 2150 2528 
Q 2419 2641 2581 2828 
Q 3050 3388 3463 4047 
L 2100 4047 
L 2100 4491 
L 4094 4491 
Q 3859 4850 3650 5128 
L 4063 5384 
Q 4300 5091 4594 4684 
L 4297 4491 
L 6200 4491 
L 6200 4047 
L 3663 4047 
L 4006 3897 
Q 3488 3197 2988 2609 
Q 4166 2650 5153 2694 
Q 4916 3075 4700 3391 
L 5100 3641 
z
M 894 1534 
Q 1394 1603 2175 1722 
Q 2138 1472 2113 1259 
Q 1331 1153 325 991 
L 225 1441 
Q 616 1841 1153 2744 
Q 503 2700 219 2678 
L 100 3103 
Q 650 3828 1288 5316 
L 1763 5128 
Q 1156 3941 656 3141 
Q 1066 3147 1394 3159 
Q 1581 3494 1788 3884 
L 2256 3678 
Q 1544 2434 894 1534 
z
M 81 222 
Q 1119 422 2225 672 
Q 2200 347 2200 222 
Q 1069 -28 225 -253 
L 81 222 
z
" transform="scale(0.015625)"/>
      <path id="MicrosoftYaHei-8ba1" d="M 2100 3153 
L 3919 3153 
L 3919 5303 
L 4456 5303 
L 4456 3153 
L 6288 3153 
L 6288 2703 
L 4456 2703 
L 4456 -822 
L 3919 -822 
L 3919 2703 
L 2100 2703 
L 2100 3153 
z
M 2675 903 
Q 2694 578 2719 359 
Q 1719 -266 1069 -728 
L 769 -303 
Q 988 -116 988 266 
L 988 2741 
L 100 2741 
L 100 3191 
L 1488 3191 
L 1488 153 
Q 2031 484 2675 903 
z
M 738 5222 
Q 1419 4522 1725 4184 
L 1288 3816 
Q 894 4334 356 4891 
L 738 5222 
z
" transform="scale(0.015625)"/>
      <path id="MicrosoftYaHei-7ed3" d="M 2625 1709 
L 5925 1709 
L 5925 -828 
L 5438 -828 
L 5438 -441 
L 3113 -441 
L 3113 -828 
L 2625 -828 
L 2625 1709 
z
M 2500 2897 
L 4025 2897 
L 4025 3872 
L 2294 3872 
L 2294 4322 
L 4025 4322 
L 4025 5322 
L 4525 5322 
L 4525 4322 
L 6275 4322 
L 6275 3872 
L 4525 3872 
L 4525 2897 
L 6056 2897 
L 6056 2447 
L 2500 2447 
L 2500 2897 
z
M 894 1566 
Q 1725 1684 2269 1778 
Q 2231 1534 2213 1303 
Q 1519 1203 319 1009 
L 219 1472 
Q 619 1888 1172 2791 
Q 647 2756 219 2722 
L 100 3147 
Q 675 3916 1294 5366 
L 1769 5178 
Q 1094 3853 663 3184 
Q 1025 3194 1419 3206 
Q 1631 3569 1863 3997 
L 2325 3766 
Q 1613 2578 894 1566 
z
M 5438 1272 
L 3113 1272 
L 3113 -3 
L 5438 -3 
L 5438 1272 
z
M 75 91 
Q 1231 316 2331 584 
Q 2313 334 2313 109 
Q 1300 -103 213 -391 
L 75 91 
z
" transform="scale(0.015625)"/>
      <path id="MicrosoftYaHei-8bba" d="M 2725 2866 
L 3225 2866 
L 3225 1553 
Q 4425 2072 5188 2753 
L 5538 2341 
Q 4569 1578 3225 1034 
L 3225 216 
Q 3225 -197 3600 -197 
L 4844 -197 
Q 5294 -197 5363 203 
Q 5444 659 5475 1191 
Q 5675 1103 5981 1009 
Q 5925 497 5844 53 
Q 5719 -672 4869 -672 
L 3450 -672 
Q 2725 -672 2725 122 
L 2725 2866 
z
M 4413 5253 
L 4331 5109 
Q 5075 3791 6344 3166 
Q 6163 2947 5981 2697 
Q 4744 3516 4056 4666 
Q 3388 3559 2106 2678 
Q 1925 2941 1763 3109 
Q 3181 3947 3831 5253 
L 4413 5253 
z
M 2206 691 
Q 2225 366 2250 153 
Q 1550 -316 994 -747 
L 700 -328 
Q 913 -153 913 209 
L 913 2678 
L 100 2678 
L 100 3141 
L 1400 3141 
L 1400 122 
Q 1769 372 2206 691 
z
M 856 5197 
Q 1538 4497 1844 4159 
L 1406 3791 
Q 1013 4309 475 4866 
L 856 5197 
z
" transform="scale(0.015625)"/>
     </defs>
     <use xlink:href="#MicrosoftYaHei-53ef"/>
     <use xlink:href="#MicrosoftYaHei-652f" transform="translate(100 0)"/>
     <use xlink:href="#MicrosoftYaHei-6301" transform="translate(200 0)"/>
     <use xlink:href="#MicrosoftYaHei-7edf" transform="translate(300 0)"/>
     <use xlink:href="#MicrosoftYaHei-8ba1" transform="translate(400 0)"/>
     <use xlink:href="#MicrosoftYaHei-7ed3" transform="translate(500 0)"/>
     <use xlink:href="#MicrosoftYaHei-8bba" transform="translate(600 0)"/>
    </g>
   </g>
   <g id="text_2">
    <!-- 30-step 案例轨迹 -->
    <g style="fill: #e5edf7" transform="translate(343.714687 220.523888) scale(0.12 -0.12)">
     <defs>
      <path id="MicrosoftYaHei-33" d="M 447 809 
Q 944 425 1569 425 
Q 2069 425 2361 670 
Q 2653 916 2653 1328 
Q 2653 2247 1338 2247 
L 934 2247 
L 934 2753 
L 1319 2753 
Q 2484 2753 2484 3616 
Q 2484 4413 1594 4413 
Q 1084 4413 634 4069 
L 634 4647 
Q 1109 4922 1744 4922 
Q 2363 4922 2738 4598 
Q 3113 4275 3113 3759 
Q 3113 2809 2144 2538 
L 2144 2525 
Q 2669 2469 2973 2155 
Q 3278 1841 3278 1372 
Q 3278 719 2808 319 
Q 2338 -81 1556 -81 
Q 869 -81 447 175 
L 447 809 
z
" transform="scale(0.015625)"/>
      <path id="MicrosoftYaHei-74" d="M 2206 34 
Q 2006 -75 1666 -75 
Q 738 -75 738 953 
L 738 2950 
L 144 2950 
L 144 3456 
L 738 3456 
L 738 4288 
L 1347 4481 
L 1347 3456 
L 2206 3456 
L 2206 2950 
L 1347 2950 
L 1347 1063 
Q 1347 722 1462 575 
Q 1578 428 1847 428 
Q 2053 428 2206 544 
L 2206 34 
z
" transform="scale(0.015625)"/>
      <path id="MicrosoftYaHei-70" d="M 1159 488 
L 1159 -1591 
L 547 -1591 
L 547 3456 
L 1159 3456 
L 1159 2859 
L 1172 2859 
Q 1578 3538 2359 3538 
Q 3022 3538 3398 3073 
Q 3775 2609 3775 1828 
Q 3775 966 3348 442 
Q 2922 -81 2200 -81 
Q 1534 -81 1172 488 
L 1159 488 
z
M 1156 1425 
Q 1156 1003 1428 714 
Q 1700 425 2109 425 
Q 2597 425 2872 800 
Q 3147 1175 3147 1838 
Q 3147 2397 2890 2714 
Q 2634 3031 2191 3031 
Q 1738 3031 1447 2709 
Q 1156 2388 1156 1884 
L 1156 1425 
z
" transform="scale(0.015625)"/>
      <path id="MicrosoftYaHei-6848" d="M 419 1822 
Q 1925 1994 2766 2219 
Q 2016 2419 1250 2609 
Q 1506 2884 1738 3153 
L 250 3153 
L 250 3566 
L 2075 3566 
Q 2313 3866 2513 4159 
L 3019 4016 
Q 2850 3791 2659 3566 
L 6150 3566 
L 6150 3153 
L 4806 3153 
Q 4509 2625 4003 2297 
Q 4897 2063 5681 1847 
L 5481 1428 
Q 4491 1741 3466 2025 
Q 2516 1650 600 1409 
Q 525 1609 419 1822 
z
M 6319 -197 
Q 6106 -447 5956 -666 
Q 4306 -172 3425 544 
L 3425 -866 
L 2975 -866 
L 2975 534 
Q 2028 -134 456 -672 
Q 313 -491 94 -247 
Q 1706 156 2647 747 
L 238 747 
L 238 1166 
L 2975 1166 
L 2975 1678 
L 3425 1678 
L 3425 1166 
L 6200 1166 
L 6200 747 
L 3766 747 
Q 4753 81 6319 -197 
z
M 419 4734 
L 3038 4734 
Q 2919 4950 2763 5178 
L 3206 5378 
Q 3409 5059 3591 4734 
L 5975 4734 
L 5975 3791 
L 5500 3791 
L 5500 4322 
L 894 4322 
L 894 3791 
L 419 3791 
L 419 4734 
z
M 1963 2809 
Q 2725 2622 3425 2444 
Q 3975 2688 4284 3153 
L 2294 3153 
Q 2134 2981 1963 2809 
z
" transform="scale(0.015625)"/>
      <path id="MicrosoftYaHei-4f8b" d="M 2381 1841 
L 2631 2191 
Q 2916 1997 3247 1738 
Q 3488 2378 3581 3128 
L 2703 3128 
Q 2350 1984 1831 1291 
Q 1700 1491 1531 1678 
Q 2238 2694 2578 4522 
L 1900 4522 
L 1900 4959 
L 4319 4959 
L 4319 4522 
L 3044 4522 
Q 2947 4009 2828 3559 
L 4044 3559 
L 4044 3128 
Q 3788 666 2038 -822 
Q 1900 -634 1694 -416 
Q 2578 297 3063 1303 
Q 2753 1556 2381 1841 
z
M 88 2291 
Q 894 3659 1281 5322 
L 1744 5234 
Q 1578 4534 1325 3853 
L 1325 -809 
L 900 -809 
L 900 2847 
Q 625 2275 288 1716 
Q 213 1966 88 2291 
z
M 5575 5303 
L 6031 5303 
L 6031 84 
Q 6031 -391 5881 -566 
Q 5750 -728 5356 -734 
Q 5088 -741 4488 -722 
Q 4463 -466 4400 -203 
Q 4881 -253 5188 -253 
Q 5431 -259 5500 -166 
Q 5575 -84 5575 234 
L 5575 5303 
z
M 4913 653 
L 4469 653 
L 4469 4322 
L 4913 4322 
L 4913 653 
z
" transform="scale(0.015625)"/>
      <path id="MicrosoftYaHei-8f68" d="M 2700 3934 
L 3406 3934 
L 3406 5303 
L 3894 5303 
L 3894 3934 
L 5313 3934 
L 5313 78 
Q 5313 -166 5475 -166 
L 5556 -166 
Q 5731 -166 5775 184 
Q 5831 591 5869 1309 
Q 6081 1203 6319 1134 
Q 6281 591 6206 47 
Q 6106 -641 5619 -641 
L 5331 -641 
Q 4838 -641 4838 22 
L 4838 3472 
L 3894 3472 
Q 3881 1634 3706 859 
Q 3506 -116 2869 -891 
Q 2688 -672 2463 -491 
Q 3044 109 3244 1072 
Q 3394 1709 3406 3472 
L 2700 3472 
L 2700 3934 
z
M 825 2434 
L 1500 2434 
L 1500 3603 
L 1975 3603 
L 1975 2434 
L 2694 2434 
L 2694 1972 
L 1975 1972 
L 1975 1166 
Q 2325 1234 2694 1309 
Q 2681 1022 2681 828 
Q 2338 766 1975 697 
L 1975 -859 
L 1500 -859 
L 1500 603 
Q 869 478 181 334 
L 75 834 
Q 756 934 1500 1072 
L 1500 1972 
L 300 1972 
L 300 2366 
Q 569 3141 813 4028 
L 163 4028 
L 163 4466 
L 925 4466 
Q 1031 4884 1138 5328 
L 1644 5228 
Q 1538 4834 1438 4466 
L 2675 4466 
L 2675 4028 
L 1313 4028 
Q 1063 3159 825 2434 
z
" transform="scale(0.015625)"/>
      <path id="MicrosoftYaHei-8ff9" d="M 1950 4422 
L 3963 4422 
Q 3772 4772 3519 5109 
L 3919 5353 
Q 4200 5003 4425 4641 
L 4059 4422 
L 6150 4422 
L 6150 3966 
L 4938 3966 
L 4938 959 
Q 4938 203 4175 159 
Q 3888 147 3419 147 
Q 3388 391 3325 666 
Q 3700 634 4056 634 
Q 4488 634 4488 1122 
L 4488 3966 
L 3569 3966 
L 3569 2797 
Q 3569 853 2438 -16 
Q 2281 197 2113 372 
Q 3119 1172 3119 2791 
L 3119 3966 
L 1950 3966 
L 1950 4422 
z
M 2903 -228 
L 4163 -253 
L 6319 -191 
Q 6213 -441 6113 -672 
L 4159 -703 
L 2763 -672 
Q 1575 -641 1088 47 
Q 806 -216 356 -753 
L 88 -222 
Q 559 197 863 459 
L 863 2641 
L 150 2641 
L 150 3097 
L 1325 3097 
L 1325 397 
Q 1778 -200 2903 -228 
z
M 5194 2853 
L 5638 3053 
Q 6056 2153 6300 1478 
L 5844 1284 
Q 5550 2134 5194 2853 
z
M 2269 3047 
L 2725 2884 
Q 2413 2141 2013 1328 
Q 1981 1341 1550 1528 
Q 1956 2247 2269 3047 
z
M 769 5272 
Q 1281 4591 1656 4009 
L 1225 3703 
Q 850 4341 369 5009 
L 769 5272 
z
" transform="scale(0.015625)"/>
     </defs>
     <use xlink:href="#MicrosoftYaHei-33"/>
     <use xlink:href="#MicrosoftYaHei-30" transform="translate(58.642578 0)"/>
     <use xlink:href="#MicrosoftYaHei-2d" transform="translate(117.285156 0)"/>
     <use xlink:href="#MicrosoftYaHei-73" transform="translate(160.546875 0)"/>
     <use xlink:href="#MicrosoftYaHei-74" transform="translate(206.835938 0)"/>
     <use xlink:href="#MicrosoftYaHei-65" transform="translate(243.216797 0)"/>
     <use xlink:href="#MicrosoftYaHei-70" transform="translate(299.955078 0)"/>
     <use xlink:href="#MicrosoftYaHei-20" transform="translate(363.822266 0)"/>
     <use xlink:href="#MicrosoftYaHei-6848" transform="translate(393.412109 0)"/>
     <use xlink:href="#MicrosoftYaHei-4f8b" transform="translate(493.412109 0)"/>
     <use xlink:href="#MicrosoftYaHei-8f68" transform="translate(593.412109 0)"/>
     <use xlink:href="#MicrosoftYaHei-8ff9" transform="translate(693.412109 0)"/>
    </g>
    <!-- 冲突是否反复 / 恢复 / fallback -->
    <g style="fill: #e5edf7" transform="translate(309.159375 235.018012) scale(0.12 -0.12)">
     <defs>
      <path id="MicrosoftYaHei-51b2" d="M 2138 4084 
L 3781 4084 
L 3781 5309 
L 4281 5309 
L 4281 4084 
L 5925 4084 
L 5925 984 
L 5438 984 
L 5438 1284 
L 4281 1284 
L 4281 -828 
L 3781 -828 
L 3781 1284 
L 2625 1284 
L 2625 984 
L 2138 984 
L 2138 4084 
z
M 5438 3634 
L 4281 3634 
L 4281 1734 
L 5438 1734 
L 5438 3634 
z
M 2625 1734 
L 3781 1734 
L 3781 3634 
L 2625 3634 
L 2625 1734 
z
M 1125 2434 
Q 1388 2259 1631 2153 
Q 1181 928 681 -603 
L 163 -328 
Q 663 803 1125 2434 
z
M 644 5034 
Q 1200 4291 1619 3653 
L 1144 3341 
Q 675 4134 219 4747 
L 644 5034 
z
" transform="scale(0.015625)"/>
      <path id="MicrosoftYaHei-7a81" d="M 119 -378 
Q 2309 91 2763 1453 
L 275 1453 
L 275 1903 
L 2856 1903 
Q 2888 2272 2894 3022 
L 3406 3022 
Q 3406 2316 3363 1903 
L 6150 1903 
L 6150 1453 
L 3528 1453 
Q 4397 94 6313 -253 
Q 6100 -541 5956 -772 
Q 4059 -309 3181 1147 
Q 2600 -347 444 -853 
Q 325 -659 119 -378 
z
M 369 4472 
L 3147 4472 
Q 2972 4809 2756 5141 
L 3238 5359 
Q 3475 5003 3669 4641 
L 3322 4472 
L 6038 4472 
L 6038 3422 
L 5531 3422 
L 5531 4022 
L 869 4022 
L 869 3397 
L 369 3397 
L 369 4472 
z
M 3944 3778 
Q 5163 3278 6238 2722 
L 5988 2259 
Q 4788 2934 3706 3416 
L 3944 3778 
z
M 2413 3784 
L 2713 3422 
Q 1613 2778 450 2303 
Q 331 2491 156 2709 
Q 1163 3066 2413 3784 
z
M 3725 2678 
L 4025 2978 
Q 4550 2597 4838 2347 
L 4488 2016 
Q 4188 2309 3725 2678 
z
" transform="scale(0.015625)"/>
      <path id="MicrosoftYaHei-662f" d="M 1088 5078 
L 5338 5078 
L 5338 2472 
L 4863 2472 
L 4863 2722 
L 1563 2722 
L 1563 2472 
L 1088 2472 
L 1088 5078 
z
M 1400 1553 
L 1875 1409 
Q 1775 1081 1647 788 
Q 2122 19 3063 -134 
L 3063 1747 
L 213 1747 
L 213 2184 
L 6225 2184 
L 6225 1747 
L 3563 1747 
L 3563 1122 
L 5788 1122 
L 5788 697 
L 3563 697 
L 3563 -172 
Q 4763 -197 6344 -147 
Q 6244 -416 6169 -641 
Q 4331 -647 3344 -622 
Q 2022 -606 1434 359 
Q 1006 -413 350 -891 
Q 225 -703 44 -484 
Q 1050 191 1400 1553 
z
M 1563 3147 
L 4863 3147 
L 4863 3697 
L 1563 3697 
L 1563 3147 
z
M 4863 4653 
L 1563 4653 
L 1563 4109 
L 4863 4109 
L 4863 4653 
z
" transform="scale(0.015625)"/>
      <path id="MicrosoftYaHei-5426" d="M 938 1959 
L 5463 1959 
L 5463 -816 
L 4956 -816 
L 4956 -397 
L 1444 -397 
L 1444 -828 
L 938 -828 
L 938 1959 
z
M 350 4959 
L 6050 4959 
L 6050 4509 
L 3713 4509 
Q 3494 4247 3219 3984 
L 3488 3984 
L 3488 2166 
L 2981 2166 
L 2981 3772 
Q 1813 2803 419 2159 
Q 313 2347 100 2616 
Q 1875 3378 3113 4509 
L 350 4509 
L 350 4959 
z
M 4956 1509 
L 1444 1509 
L 1444 41 
L 4956 41 
L 4956 1509 
z
M 3619 3622 
L 3888 3984 
Q 5244 3297 6313 2603 
L 5981 2172 
Q 4913 2916 3619 3622 
z
" transform="scale(0.015625)"/>
      <path id="MicrosoftYaHei-53cd" d="M 881 4884 
Q 3369 4903 5738 5191 
L 5919 4691 
Q 3750 4503 1369 4434 
L 1369 3372 
L 5638 3372 
L 5638 2909 
Q 5125 1525 4100 591 
Q 5019 -25 6331 -247 
Q 6106 -534 5938 -803 
Q 4616 -422 3697 253 
Q 2738 -475 1406 -878 
Q 1263 -659 1063 -397 
Q 2366 -44 3278 597 
Q 2256 1525 1859 2909 
L 1369 2909 
L 1369 2553 
Q 1369 334 413 -853 
Q 250 -653 63 -453 
Q 881 559 881 2553 
L 881 4884 
z
M 5050 2909 
L 2366 2909 
Q 2794 1678 3681 909 
Q 4622 1722 5050 2909 
z
" transform="scale(0.015625)"/>
      <path id="MicrosoftYaHei-590d" d="M 81 3559 
Q 975 4259 1563 5347 
L 2113 5347 
Q 1963 5084 1803 4841 
L 6200 4841 
L 6200 4441 
L 1525 4441 
Q 1356 4209 1175 3997 
L 5575 3997 
L 5575 1697 
L 5138 1697 
L 5138 1859 
L 1463 1859 
L 1463 1634 
L 1031 1634 
L 1031 3828 
Q 716 3475 369 3166 
Q 263 3347 81 3559 
z
M 81 291 
Q 1231 853 1931 1709 
L 2488 1709 
Q 2350 1534 2206 1372 
L 5588 1372 
L 5588 1034 
Q 4981 494 4038 69 
Q 5016 -188 6319 -284 
Q 6150 -566 6025 -797 
Q 4503 -584 3416 -175 
Q 2303 -563 725 -872 
Q 606 -666 438 -447 
Q 1988 -191 2856 59 
Q 2153 397 1678 838 
Q 1084 303 388 -53 
Q 250 128 81 291 
z
M 1463 2247 
L 5138 2247 
L 5138 2747 
L 1463 2747 
L 1463 2247 
z
M 5138 3609 
L 1463 3609 
L 1463 3116 
L 5138 3116 
L 5138 3609 
z
M 4869 1009 
L 2025 1009 
Q 2572 553 3428 253 
Q 4297 591 4869 1009 
z
" transform="scale(0.015625)"/>
      <path id="MicrosoftYaHei-6062" d="M 1413 641 
Q 2469 2041 2750 4047 
L 2000 4047 
L 2000 4484 
L 2806 4484 
Q 2844 4884 2856 5309 
L 3331 5309 
Q 3319 4884 3281 4484 
L 6238 4484 
L 6238 4047 
L 3231 4047 
Q 3131 3272 2925 2578 
L 3219 2741 
Q 3575 2172 3863 1647 
L 3456 1397 
Q 3194 1934 2875 2422 
Q 2500 1241 1806 303 
Q 1663 453 1413 641 
z
M 4619 3691 
Q 4600 2916 4569 2428 
Q 4969 491 6313 -353 
Q 6088 -553 5906 -766 
Q 4781 97 4394 1466 
Q 4050 134 2706 -853 
Q 2575 -666 2356 -459 
Q 3631 447 3938 1509 
Q 4144 2141 4150 3691 
L 4619 3691 
z
M 938 5266 
L 1400 5266 
L 1400 3897 
L 1644 4072 
Q 2019 3666 2294 3278 
L 1931 3022 
Q 1688 3403 1400 3734 
L 1400 -847 
L 938 -847 
L 938 5266 
z
M 356 3828 
L 775 3766 
Q 681 3009 500 2166 
Q 325 2209 81 2266 
Q 231 2909 356 3828 
z
M 4969 1659 
Q 5413 2172 5775 2778 
L 6181 2509 
Q 5775 1903 5313 1359 
L 4969 1659 
z
" transform="scale(0.015625)"/>
      <path id="MicrosoftYaHei-66" d="M 2319 4594 
Q 2147 4684 1947 4684 
Q 1372 4684 1372 3972 
L 1372 3456 
L 2181 3456 
L 2181 2950 
L 1372 2950 
L 1372 0 
L 766 0 
L 766 2950 
L 175 2950 
L 175 3456 
L 766 3456 
L 766 4000 
Q 766 4556 1086 4873 
Q 1406 5191 1900 5191 
Q 2163 5191 2319 5131 
L 2319 4594 
z
" transform="scale(0.015625)"/>
      <path id="MicrosoftYaHei-61" d="M 628 3216 
Q 1144 3538 1819 3538 
Q 3069 3538 3069 2225 
L 3069 0 
L 2463 0 
L 2463 534 
L 2447 534 
Q 2088 -81 1388 -81 
Q 884 -81 587 191 
Q 291 463 291 925 
Q 291 1894 1438 2053 
L 2463 2197 
Q 2463 3044 1763 3044 
Q 1141 3044 628 2625 
L 628 3216 
z
M 1653 1625 
Q 1228 1569 1067 1412 
Q 906 1256 906 975 
Q 906 728 1081 572 
Q 1256 416 1544 416 
Q 1944 416 2203 697 
Q 2463 978 2463 1403 
L 2463 1734 
L 1653 1625 
z
" transform="scale(0.015625)"/>
      <path id="MicrosoftYaHei-6c" d="M 544 0 
L 544 5116 
L 1156 5116 
L 1156 0 
L 544 0 
z
" transform="scale(0.015625)"/>
      <path id="MicrosoftYaHei-62" d="M 1159 488 
L 1159 0 
L 547 0 
L 547 5116 
L 1159 5116 
L 1159 2859 
L 1172 2859 
Q 1578 3538 2359 3538 
Q 3009 3538 3392 3080 
Q 3775 2622 3775 1828 
Q 3775 953 3345 436 
Q 2916 -81 2200 -81 
Q 1525 -81 1172 488 
L 1159 488 
z
M 1156 1422 
Q 1156 1003 1428 714 
Q 1700 425 2109 425 
Q 2597 425 2872 800 
Q 3147 1175 3147 1838 
Q 3147 2384 2890 2707 
Q 2634 3031 2191 3031 
Q 1741 3031 1448 2709 
Q 1156 2388 1156 1891 
L 1156 1422 
z
" transform="scale(0.015625)"/>
      <path id="MicrosoftYaHei-63" d="M 2934 156 
Q 2538 -81 1978 -81 
Q 1228 -81 772 400 
Q 316 881 316 1647 
Q 316 2497 808 3017 
Q 1300 3538 2125 3538 
Q 2600 3538 2938 3369 
L 2938 2763 
Q 2572 3031 2125 3031 
Q 1600 3031 1270 2667 
Q 941 2303 941 1697 
Q 941 1100 1252 762 
Q 1563 425 2091 425 
Q 2538 425 2934 719 
L 2934 156 
z
" transform="scale(0.015625)"/>
      <path id="MicrosoftYaHei-6b" d="M 3484 0 
L 2650 0 
L 1172 1666 
L 1159 1666 
L 1159 0 
L 547 0 
L 547 5116 
L 1159 5116 
L 1159 1872 
L 1172 1872 
L 2575 3456 
L 3363 3456 
L 1800 1794 
L 3484 0 
z
" transform="scale(0.015625)"/>
     </defs>
     <use xlink:href="#MicrosoftYaHei-51b2"/>
     <use xlink:href="#MicrosoftYaHei-7a81" transform="translate(100 0)"/>
     <use xlink:href="#MicrosoftYaHei-662f" transform="translate(200 0)"/>
     <use xlink:href="#MicrosoftYaHei-5426" transform="translate(300 0)"/>
     <use xlink:href="#MicrosoftYaHei-53cd" transform="translate(400 0)"/>
     <use xlink:href="#MicrosoftYaHei-590d" transform="translate(500 0)"/>
     <use xlink:href="#MicrosoftYaHei-20" transform="translate(600 0)"/>
     <use xlink:href="#MicrosoftYaHei-2f" transform="translate(629.589844 0)"/>
     <use xlink:href="#MicrosoftYaHei-20" transform="translate(672.314453 0)"/>
     <use xlink:href="#MicrosoftYaHei-6062" transform="translate(701.904297 0)"/>
     <use xlink:href="#MicrosoftYaHei-590d" transform="translate(801.904297 0)"/>
     <use xlink:href="#MicrosoftYaHei-20" transform="translate(901.904297 0)"/>
     <use xlink:href="#MicrosoftYaHei-2f" transform="translate(931.494141 0)"/>
     <use xlink:href="#MicrosoftYaHei-20" transform="translate(974.21875 0)"/>
     <use xlink:href="#MicrosoftYaHei-66" transform="translate(1003.808594 0)"/>
     <use xlink:href="#MicrosoftYaHei-61" transform="translate(1038.476562 0)"/>
     <use xlink:href="#MicrosoftYaHei-6c" transform="translate(1093.75 0)"/>
     <use xlink:href="#MicrosoftYaHei-6c" transform="translate(1120.361328 0)"/>
     <use xlink:href="#MicrosoftYaHei-62" transform="translate(1146.972656 0)"/>
     <use xlink:href="#MicrosoftYaHei-61" transform="translate(1209.464844 0)"/>
     <use xlink:href="#MicrosoftYaHei-63" transform="translate(1264.738281 0)"/>
     <use xlink:href="#MicrosoftYaHei-6b" transform="translate(1314.884766 0)"/>
    </g>
    <!-- 只能描述该轨迹 -->
    <g style="fill: #e5edf7" transform="translate(349.32 249.512137) scale(0.12 -0.12)">
     <defs>
      <path id="MicrosoftYaHei-53ea" d="M 925 4909 
L 5525 4909 
L 5525 1516 
L 5013 1516 
L 5013 1809 
L 1438 1809 
L 1438 1516 
L 925 1516 
L 925 4909 
z
M 2194 1503 
L 2675 1184 
Q 1631 -28 550 -841 
Q 350 -666 81 -447 
Q 1288 378 2194 1503 
z
M 4081 1522 
Q 5256 547 6288 -391 
Q 6238 -434 5806 -828 
Q 4875 166 3700 1147 
L 4081 1522 
z
M 5013 2272 
L 5013 4447 
L 1438 4447 
L 1438 2272 
L 5013 2272 
z
" transform="scale(0.015625)"/>
      <path id="MicrosoftYaHei-63cf" d="M 2250 3041 
L 5981 3041 
L 5981 -809 
L 5506 -809 
L 5506 -422 
L 2725 -422 
L 2725 -809 
L 2250 -809 
L 2250 3041 
z
M 88 2003 
Q 463 2116 888 2263 
L 888 3697 
L 144 3697 
L 144 4122 
L 888 4122 
L 888 5284 
L 1363 5284 
L 1363 4122 
L 2000 4122 
L 2000 3697 
L 1363 3697 
L 1363 2428 
Q 1656 2534 1969 2653 
Q 1975 2347 1981 2159 
Q 1672 2047 1363 1931 
L 1363 -116 
Q 1363 -753 756 -766 
Q 531 -772 169 -766 
Q 131 -503 88 -247 
Q 431 -284 644 -284 
Q 888 -284 888 -28 
L 888 1756 
Q 522 1619 156 1478 
L 88 2003 
z
M 4700 5291 
L 5156 5291 
L 5156 4503 
L 6300 4503 
L 6300 4066 
L 5156 4066 
L 5156 3297 
L 4700 3297 
L 4700 4066 
L 3525 4066 
L 3525 3297 
L 3069 3297 
L 3069 4066 
L 2075 4066 
L 2075 4503 
L 3069 4503 
L 3069 5284 
L 3525 5284 
L 3525 4503 
L 4700 4503 
L 4700 5291 
z
M 4344 -9 
L 5506 -9 
L 5506 1109 
L 4344 1109 
L 4344 -9 
z
M 2725 -9 
L 3881 -9 
L 3881 1109 
L 2725 1109 
L 2725 -9 
z
M 5506 2616 
L 4344 2616 
L 4344 1509 
L 5506 1509 
L 5506 2616 
z
M 2725 1509 
L 3881 1509 
L 3881 2616 
L 2725 2616 
L 2725 1509 
z
" transform="scale(0.015625)"/>
      <path id="MicrosoftYaHei-8ff0" d="M 1956 3934 
L 3688 3934 
L 3688 5291 
L 4175 5291 
L 4175 3934 
L 6050 3934 
L 6050 3484 
L 4175 3484 
L 4175 2666 
L 4388 2909 
Q 5338 2147 6263 1316 
L 5900 909 
Q 5131 1678 4175 2497 
L 4175 41 
L 3688 41 
L 3688 2866 
Q 2988 1653 2006 703 
Q 1831 878 1606 1059 
Q 2788 2134 3550 3484 
L 1956 3484 
L 1956 3934 
z
M 2706 -241 
Q 4075 -272 6319 -216 
Q 6213 -466 6113 -697 
Q 4031 -728 2644 -691 
Q 1563 -672 1088 22 
Q 906 -122 356 -778 
L 88 -247 
Q 550 166 863 428 
L 863 2616 
L 150 2616 
L 150 3072 
L 1350 3072 
L 1350 341 
Q 1806 -209 2706 -241 
z
M 731 5241 
Q 1150 4753 1663 4066 
L 1231 3741 
Q 813 4384 344 4959 
L 731 5241 
z
M 4588 4866 
L 4875 5216 
Q 5531 4784 5788 4572 
L 5469 4172 
Q 5119 4484 4588 4866 
z
" transform="scale(0.015625)"/>
      <path id="MicrosoftYaHei-8be5" d="M 2006 884 
Q 3175 1478 3969 2303 
Q 3250 2241 2675 2172 
Q 2456 2147 2231 2078 
L 2000 2534 
Q 2213 2653 2406 2872 
Q 2778 3322 3184 3934 
L 1963 3934 
L 1963 4384 
L 4059 4384 
Q 3791 4791 3556 5103 
L 3963 5359 
Q 4200 5066 4513 4641 
L 4128 4384 
L 6213 4384 
L 6213 3934 
L 3778 3934 
Q 3319 3278 2819 2666 
Q 3456 2706 4378 2772 
Q 4719 3206 4969 3697 
L 5425 3453 
Q 4419 1628 2363 503 
Q 2188 697 2006 884 
z
M 2006 -447 
Q 4156 453 5525 2478 
L 5950 2191 
Q 5431 1431 4806 822 
Q 5522 259 6206 -316 
L 5825 -722 
Q 5247 -169 4466 503 
Q 3513 -331 2338 -859 
Q 2219 -691 2006 -447 
z
M 1944 772 
Q 1969 484 2013 247 
Q 1625 -53 1238 -372 
Q 1081 -509 956 -653 
L 600 -259 
Q 794 -59 794 328 
L 794 2772 
L 88 2772 
L 88 3228 
L 1281 3228 
L 1281 228 
Q 1613 497 1944 772 
z
M 750 5197 
Q 1275 4672 1656 4234 
L 1250 3884 
Q 800 4434 388 4884 
L 750 5197 
z
" transform="scale(0.015625)"/>
     </defs>
     <use xlink:href="#MicrosoftYaHei-53ea"/>
     <use xlink:href="#MicrosoftYaHei-80fd" transform="translate(100 0)"/>
     <use xlink:href="#MicrosoftYaHei-63cf" transform="translate(200 0)"/>
     <use xlink:href="#MicrosoftYaHei-8ff0" transform="translate(300 0)"/>
     <use xlink:href="#MicrosoftYaHei-8be5" transform="translate(400 0)"/>
     <use xlink:href="#MicrosoftYaHei-8f68" transform="translate(500 0)"/>
     <use xlink:href="#MicrosoftYaHei-8ff9" transform="translate(600 0)"/>
    </g>
   </g>
   <g id="text_3">
    <!-- 单步逐轨迹 -->
    <g style="fill: #e5edf7" transform="translate(361.32 320.096662) scale(0.12 -0.12)">
     <defs>
      <path id="MicrosoftYaHei-5355" d="M 125 909 
L 2956 909 
L 2956 1616 
L 1225 1616 
L 1225 1322 
L 750 1322 
L 750 4353 
L 2047 4353 
Q 1747 4703 1400 5072 
L 1756 5366 
Q 2219 4922 2569 4547 
L 2338 4353 
L 3803 4353 
Q 4147 4809 4500 5347 
L 5000 5078 
Q 4678 4688 4378 4353 
L 5656 4353 
L 5656 1322 
L 5181 1322 
L 5181 1616 
L 3444 1616 
L 3444 909 
L 6275 909 
L 6275 459 
L 3444 459 
L 3444 -859 
L 2956 -859 
L 2956 459 
L 125 459 
L 125 909 
z
M 3444 2053 
L 5181 2053 
L 5181 2778 
L 3444 2778 
L 3444 2053 
z
M 1225 2053 
L 2956 2053 
L 2956 2778 
L 1225 2778 
L 1225 2053 
z
M 5181 3916 
L 3444 3916 
L 3444 3203 
L 5181 3203 
L 5181 3916 
z
M 1225 3203 
L 2956 3203 
L 2956 3916 
L 1225 3916 
L 1225 3203 
z
" transform="scale(0.015625)"/>
      <path id="MicrosoftYaHei-6b65" d="M 188 2997 
L 1250 2997 
L 1250 4759 
L 1750 4759 
L 1750 2997 
L 3088 2997 
L 3088 5328 
L 3588 5328 
L 3588 4416 
L 5744 4416 
L 5744 3966 
L 3588 3966 
L 3588 2997 
L 6225 2997 
L 6225 2534 
L 188 2534 
L 188 2997 
z
M 188 -441 
Q 3744 -9 5400 1872 
L 5794 1484 
Q 4013 -453 375 -891 
Q 306 -691 188 -441 
z
M 1794 2147 
L 2194 1803 
Q 1369 947 613 322 
Q 469 497 275 691 
Q 1044 1291 1794 2147 
z
M 3038 2378 
L 3538 2378 
L 3538 528 
L 3038 528 
L 3038 2378 
z
" transform="scale(0.015625)"/>
      <path id="MicrosoftYaHei-9010" d="M 1588 903 
Q 3019 1384 4100 2556 
Q 4016 2806 3891 3041 
Q 3109 2228 1969 1791 
Q 1888 1997 1706 2228 
Q 2928 2616 3638 3450 
Q 3528 3606 3397 3750 
Q 2753 3272 1913 2928 
Q 1819 3166 1644 3372 
Q 2847 3747 3641 4534 
L 2025 4534 
L 2025 4984 
L 6119 4984 
L 6119 4534 
L 4241 4534 
Q 4016 4272 3747 4034 
Q 4144 3603 4384 3106 
Q 5034 3597 5588 4128 
L 5956 3772 
Q 5322 3225 4572 2697 
Q 5516 2053 6331 1434 
L 5988 997 
Q 5359 1538 4716 2038 
Q 4769 1713 4769 1366 
Q 4769 122 3650 122 
Q 3363 122 2988 147 
Q 2950 391 2894 659 
Q 3325 597 3638 597 
Q 4288 597 4288 1391 
Q 4284 1719 4231 2028 
Q 3222 1009 1838 459 
Q 1738 697 1588 903 
z
M 2688 -203 
L 4150 -228 
L 6300 -166 
Q 6231 -372 6125 -659 
L 4025 -678 
L 2531 -641 
Q 1513 -622 1081 91 
Q 825 -147 331 -747 
L 75 -228 
Q 594 272 844 506 
L 844 2641 
L 131 2641 
L 131 3103 
L 1325 3103 
L 1325 484 
Q 1700 -191 2688 -203 
z
M 856 5203 
Q 1175 4816 1731 4022 
L 1288 3709 
Q 781 4503 456 4934 
L 856 5203 
z
" transform="scale(0.015625)"/>
     </defs>
     <use xlink:href="#MicrosoftYaHei-5355"/>
     <use xlink:href="#MicrosoftYaHei-6b65" transform="translate(100 0)"/>
     <use xlink:href="#MicrosoftYaHei-9010" transform="translate(200 0)"/>
     <use xlink:href="#MicrosoftYaHei-8f68" transform="translate(300 0)"/>
     <use xlink:href="#MicrosoftYaHei-8ff9" transform="translate(400 0)"/>
    </g>
    <!-- 何时触发 / 改了谁 / 放松什么 -->
    <g style="fill: #e5edf7" transform="translate(313.09125 334.590787) scale(0.12 -0.12)">
     <defs>
      <path id="MicrosoftYaHei-4f55" d="M 2288 3509 
L 4406 3509 
L 4406 1022 
L 2738 1022 
L 2738 703 
L 2288 703 
L 2288 3509 
z
M 2113 4847 
L 6306 4847 
L 6306 4384 
L 5756 4384 
L 5756 153 
Q 5756 -772 4906 -778 
Q 4613 -784 3913 -772 
Q 3875 -541 3813 -234 
Q 4344 -284 4794 -284 
Q 5269 -297 5269 234 
L 5269 4384 
L 2113 4384 
L 2113 4847 
z
M 56 2259 
Q 969 3628 1425 5303 
L 1925 5153 
Q 1688 4428 1425 3797 
L 1425 -841 
L 944 -841 
L 944 2784 
Q 631 2203 281 1722 
Q 188 1991 56 2259 
z
M 3956 3066 
L 2738 3066 
L 2738 1466 
L 3956 1466 
L 3956 3066 
z
" transform="scale(0.015625)"/>
      <path id="MicrosoftYaHei-65f6" d="M 344 4728 
L 2500 4728 
L 2500 -366 
L 2006 -366 
L 2006 153 
L 838 153 
L 838 -441 
L 344 -441 
L 344 4728 
z
M 2706 3941 
L 4925 3941 
L 4925 5322 
L 5425 5322 
L 5425 3941 
L 6313 3941 
L 6313 3478 
L 5425 3478 
L 5425 116 
Q 5425 -722 4625 -722 
Q 4263 -722 3563 -703 
Q 3531 -478 3463 -178 
Q 4119 -228 4488 -228 
Q 4925 -228 4925 216 
L 4925 3478 
L 2706 3478 
L 2706 3941 
z
M 838 616 
L 2006 616 
L 2006 2234 
L 838 2234 
L 838 616 
z
M 2006 4266 
L 838 4266 
L 838 2684 
L 2006 2684 
L 2006 4266 
z
M 3406 2878 
Q 3906 1966 4163 1422 
Q 4000 1347 3663 1172 
Q 3419 1766 2963 2653 
L 3406 2878 
z
" transform="scale(0.015625)"/>
      <path id="MicrosoftYaHei-89e6" d="M 75 3541 
Q 694 4309 1150 5341 
L 1588 5222 
Q 1475 4972 1356 4741 
L 2575 4741 
L 2575 4359 
L 2094 3666 
L 2888 3666 
L 2888 -128 
Q 2888 -759 2238 -759 
Q 2006 -759 1706 -747 
Q 1681 -547 1638 -328 
Q 1938 -359 2150 -359 
Q 2481 -359 2481 -72 
L 2481 928 
L 1881 928 
L 1881 -266 
L 1475 -266 
L 1475 928 
L 900 928 
Q 850 -297 425 -872 
Q 281 -709 75 -553 
Q 500 16 500 1278 
L 500 3378 
Q 438 3303 381 3228 
Q 256 3372 75 3541 
z
M 5219 809 
L 5600 978 
Q 5994 216 6319 -622 
L 5875 -822 
Q 5775 -528 5669 -247 
Q 4394 -397 3119 -566 
L 3063 -78 
Q 3713 -28 4456 34 
L 4456 1616 
L 3763 1616 
L 3763 1303 
L 3338 1303 
L 3338 4053 
L 4456 4053 
L 4456 5259 
L 4894 5259 
L 4894 4053 
L 6013 4053 
L 6013 1616 
L 4894 1616 
L 4894 78 
Q 5194 109 5513 147 
Q 5369 484 5219 809 
z
M 3763 2016 
L 4456 2016 
L 4456 3653 
L 3763 3653 
L 3763 2016 
z
M 5588 3653 
L 4894 3653 
L 4894 2016 
L 5588 2016 
L 5588 3653 
z
M 706 3666 
L 1594 3666 
L 2063 4366 
L 1150 4366 
Q 944 3997 706 3666 
z
M 1881 1297 
L 2481 1297 
L 2481 2116 
L 1881 2116 
L 1881 1297 
z
M 2481 3297 
L 1881 3297 
L 1881 2484 
L 2481 2484 
L 2481 3297 
z
M 906 1297 
L 1475 1297 
L 1475 2116 
L 906 2116 
L 906 1297 
z
M 906 2484 
L 1475 2484 
L 1475 3297 
L 906 3297 
L 906 2484 
z
" transform="scale(0.015625)"/>
      <path id="MicrosoftYaHei-53d1" d="M 944 3909 
L 2266 3909 
Q 2419 4563 2525 5334 
L 3056 5266 
Q 2950 4556 2797 3909 
L 6250 3909 
L 6250 3447 
L 2678 3447 
Q 2566 3034 2431 2653 
L 5531 2653 
L 5531 2222 
Q 5119 1200 4247 456 
Q 5125 -75 6294 -291 
Q 6013 -603 5856 -816 
Q 4856 -484 3844 153 
Q 3031 -381 1519 -859 
Q 1344 -609 1144 -397 
Q 2681 3 3441 450 
Q 2619 1153 2269 2222 
Q 1584 509 406 -591 
Q 238 -353 75 -166 
Q 1484 1106 2147 3447 
L 413 3447 
L 413 3916 
Q 669 4509 881 5109 
L 1388 4972 
Q 1169 4422 944 3909 
z
M 4981 2222 
L 2722 2222 
Q 3003 1356 3838 731 
Q 4647 1400 4981 2222 
z
M 4019 4903 
L 4294 5253 
Q 4906 4866 5469 4447 
L 5131 4041 
Q 4588 4503 4019 4903 
z
" transform="scale(0.015625)"/>
      <path id="MicrosoftYaHei-6539" d="M 2513 2709 
Q 3106 3791 3575 5341 
L 4069 5197 
Q 3894 4694 3709 4234 
L 6238 4234 
L 6238 3772 
L 5506 3772 
Q 5338 1747 4597 772 
Q 5203 125 6331 -259 
Q 6150 -434 5938 -747 
Q 4863 -234 4272 391 
Q 3634 -259 2363 -847 
Q 2213 -628 1994 -403 
Q 3303 144 3941 791 
Q 3363 1594 3147 2944 
Q 2988 2616 2825 2316 
Q 2669 2541 2513 2709 
z
M 450 2809 
L 2013 2809 
L 2013 4372 
L 331 4372 
L 331 4809 
L 2500 4809 
L 2500 2034 
L 2013 2034 
L 2013 2372 
L 938 2372 
L 938 303 
Q 1700 666 2500 1116 
Q 2544 816 2600 609 
Q 1788 203 931 -278 
Q 700 -441 569 -572 
L 231 -141 
Q 450 59 450 422 
L 450 2809 
z
M 3463 3634 
Q 3681 2050 4269 1184 
Q 4853 2038 5016 3772 
L 3522 3772 
L 3463 3634 
z
" transform="scale(0.015625)"/>
      <path id="MicrosoftYaHei-4e86" d="M 3038 2991 
Q 4106 3647 5025 4334 
L 331 4334 
L 331 4853 
L 5888 4853 
L 5888 4234 
Q 4769 3466 3600 2734 
L 3600 434 
Q 3600 -184 3363 -422 
Q 3131 -672 2506 -678 
Q 2163 -678 1488 -659 
Q 1450 -347 1388 -53 
Q 2013 -122 2463 -128 
Q 3038 -134 3038 441 
L 3038 2991 
z
" transform="scale(0.015625)"/>
      <path id="MicrosoftYaHei-8c01" d="M 3925 5084 
L 4325 5334 
Q 4669 4891 4956 4447 
L 4538 4191 
L 6175 4191 
L 6175 3766 
L 4625 3766 
L 4625 2834 
L 6131 2834 
L 6131 2409 
L 4625 2409 
L 4625 1478 
L 6131 1478 
L 6131 1053 
L 4625 1053 
L 4625 116 
L 6250 116 
L 6250 -297 
L 2825 -297 
L 2825 -816 
L 2350 -816 
L 2350 3144 
Q 2131 2806 1894 2478 
Q 1688 2691 1506 2828 
Q 2363 3922 2944 5328 
L 3438 5172 
Q 3216 4669 2959 4191 
L 4509 4191 
Q 4222 4681 3925 5084 
z
M 1981 941 
Q 1988 791 2075 372 
Q 1419 -209 975 -672 
L 594 -247 
Q 806 -22 806 316 
L 806 2716 
L 100 2716 
L 100 3166 
L 1288 3166 
L 1288 278 
Q 1550 509 1981 941 
z
M 2825 116 
L 4150 116 
L 4150 1053 
L 2825 1053 
L 2825 116 
z
M 2825 1478 
L 4150 1478 
L 4150 2409 
L 2825 2409 
L 2825 1478 
z
M 2825 2834 
L 4150 2834 
L 4150 3766 
L 2825 3766 
L 2825 2834 
z
M 738 5222 
Q 1419 4522 1725 4184 
L 1288 3816 
Q 894 4334 356 4891 
L 738 5222 
z
" transform="scale(0.015625)"/>
      <path id="MicrosoftYaHei-653e" d="M 3956 5359 
L 4456 5272 
Q 4322 4681 4106 4128 
L 6281 4128 
L 6281 3666 
L 5759 3666 
Q 5638 1816 4884 725 
Q 5447 25 6338 -353 
Q 6131 -628 5994 -847 
Q 5153 -394 4559 322 
Q 3947 -356 3094 -903 
Q 2950 -722 2738 -509 
Q 3669 56 4259 731 
Q 3713 1625 3563 2988 
Q 3378 2669 3163 2366 
Q 3031 2553 2850 2766 
Q 3663 3884 3956 5359 
z
M 156 4184 
L 3169 4184 
L 3169 3722 
L 1400 3722 
Q 1394 3166 1378 2703 
L 2813 2703 
Q 2750 1166 2694 241 
Q 2638 -584 1981 -616 
Q 1600 -622 1263 -609 
Q 1225 -378 1156 -84 
Q 1569 -128 1794 -128 
Q 2175 -128 2206 347 
Q 2269 1078 2306 2241 
L 1359 2241 
Q 1338 216 369 -853 
Q 225 -641 38 -416 
Q 625 247 750 1003 
Q 909 1713 906 3722 
L 156 3722 
L 156 4184 
z
M 5263 3666 
L 3934 3666 
Q 4034 2134 4584 1166 
Q 5188 2131 5263 3666 
z
M 1206 5141 
L 1631 5366 
Q 1900 4966 2144 4503 
L 1706 4272 
Q 1456 4753 1206 5141 
z
" transform="scale(0.015625)"/>
      <path id="MicrosoftYaHei-677e" d="M 69 1384 
Q 750 2328 1106 3603 
L 163 3603 
L 163 4022 
L 1100 4022 
L 1100 5259 
L 1556 5259 
L 1556 4022 
L 2388 4022 
L 2388 3603 
L 1556 3603 
L 1556 2584 
L 1788 2791 
Q 2213 2366 2600 1934 
L 2263 1603 
Q 1769 2172 1556 2397 
L 1556 -834 
L 1100 -834 
L 1100 2372 
Q 763 1459 294 841 
Q 200 1109 69 1384 
z
M 5063 1472 
Q 5575 547 6100 -603 
L 5619 -828 
Q 5506 -566 5394 -309 
Q 4075 -391 3088 -491 
Q 2806 -528 2606 -597 
L 2375 -153 
Q 2594 -41 2744 184 
Q 3375 1216 3906 2891 
L 4438 2703 
Q 3781 1028 3163 -28 
Q 4006 16 5213 91 
Q 4938 697 4644 1266 
L 5063 1472 
z
M 4425 5103 
L 4844 5253 
Q 5369 3578 6375 2578 
Q 6138 2384 5938 2191 
Q 4931 3366 4425 5103 
z
M 3463 5128 
L 3938 4972 
Q 3456 3478 2694 2316 
Q 2500 2478 2288 2628 
Q 3094 3772 3463 5128 
z
" transform="scale(0.015625)"/>
      <path id="MicrosoftYaHei-4ec0" d="M 2019 3016 
L 3906 3016 
L 3906 5253 
L 4438 5253 
L 4438 3016 
L 6306 3016 
L 6306 2516 
L 4438 2516 
L 4438 -797 
L 3906 -797 
L 3906 2516 
L 2019 2516 
L 2019 3016 
z
M 88 2191 
Q 1019 3478 1550 5266 
L 2081 5116 
Q 1831 4391 1550 3763 
L 1550 -803 
L 1038 -803 
L 1038 2741 
Q 694 2134 313 1647 
Q 213 1916 88 2191 
z
" transform="scale(0.015625)"/>
      <path id="MicrosoftYaHei-4e48" d="M 4663 1972 
Q 5506 778 6263 -441 
L 5763 -753 
Q 5594 -469 5428 -197 
Q 2459 -369 1706 -434 
Q 1213 -478 919 -547 
L 663 3 
Q 1044 159 1400 497 
Q 3031 2147 4263 4141 
L 4806 3866 
Q 3375 1728 1738 97 
Q 2903 144 5141 263 
Q 4663 1034 4219 1697 
L 4663 1972 
z
M 69 2022 
Q 1806 3366 2956 5322 
L 3469 5066 
Q 2213 2941 456 1609 
Q 300 1803 69 2022 
z
" transform="scale(0.015625)"/>
     </defs>
     <use xlink:href="#MicrosoftYaHei-4f55"/>
     <use xlink:href="#MicrosoftYaHei-65f6" transform="translate(100 0)"/>
     <use xlink:href="#MicrosoftYaHei-89e6" transform="translate(200 0)"/>
     <use xlink:href="#MicrosoftYaHei-53d1" transform="translate(300 0)"/>
     <use xlink:href="#MicrosoftYaHei-20" transform="translate(400 0)"/>
     <use xlink:href="#MicrosoftYaHei-2f" transform="translate(429.589844 0)"/>
     <use xlink:href="#MicrosoftYaHei-20" transform="translate(472.314453 0)"/>
     <use xlink:href="#MicrosoftYaHei-6539" transform="translate(501.904297 0)"/>
     <use xlink:href="#MicrosoftYaHei-4e86" transform="translate(601.904297 0)"/>
     <use xlink:href="#MicrosoftYaHei-8c01" transform="translate(701.904297 0)"/>
     <use xlink:href="#MicrosoftYaHei-20" transform="translate(801.904297 0)"/>
     <use xlink:href="#MicrosoftYaHei-2f" transform="translate(831.494141 0)"/>
     <use xlink:href="#MicrosoftYaHei-20" transform="translate(874.21875 0)"/>
     <use xlink:href="#MicrosoftYaHei-653e" transform="translate(903.808594 0)"/>
     <use xlink:href="#MicrosoftYaHei-677e" transform="translate(1003.808594 0)"/>
     <use xlink:href="#MicrosoftYaHei-4ec0" transform="translate(1103.808594 0)"/>
     <use xlink:href="#MicrosoftYaHei-4e48" transform="translate(1203.808594 0)"/>
    </g>
    <!-- 解释机制，不证明显著性 -->
    <g style="fill: #e5edf7" transform="translate(325.32 349.084912) scale(0.12 -0.12)">
     <defs>
      <path id="MicrosoftYaHei-89e3" d="M 75 3559 
Q 756 4316 1188 5322 
L 1625 5203 
Q 1497 4941 1366 4697 
L 2544 4697 
L 2544 4309 
L 2084 3641 
L 2881 3641 
L 2881 -128 
Q 2881 -753 2263 -759 
Q 1994 -766 1706 -747 
Q 1688 -591 1638 -328 
Q 1938 -359 2175 -359 
Q 2475 -359 2475 -66 
L 2475 953 
L 1913 953 
L 1913 -203 
L 1506 -203 
L 1506 953 
L 950 953 
Q 897 -225 438 -847 
Q 294 -684 88 -528 
Q 550 153 550 1303 
L 550 3428 
Q 463 3319 375 3216 
Q 269 3359 75 3559 
z
M 3075 897 
L 4550 897 
L 4550 1797 
L 3794 1797 
Q 3659 1438 3513 1122 
Q 3331 1228 3106 1309 
Q 3456 2059 3663 2828 
L 4094 2709 
Q 4019 2456 3941 2222 
L 4550 2222 
L 4550 2897 
L 5013 2897 
L 5013 2222 
L 6131 2222 
L 6131 1797 
L 5013 1797 
L 5013 897 
L 6281 897 
L 6281 472 
L 5013 472 
L 5013 -841 
L 4550 -841 
L 4550 472 
L 3075 472 
L 3075 897 
z
M 3138 4997 
L 5950 4997 
Q 5931 4384 5888 3847 
Q 5844 3084 5081 3084 
Q 4819 3084 4438 3103 
Q 4400 3366 4350 3603 
Q 4800 3547 5056 3547 
Q 5394 3547 5425 3909 
Q 5456 4191 5469 4572 
L 4284 4572 
Q 4263 3950 4063 3584 
Q 3844 3159 3219 2759 
Q 3119 2916 2919 3159 
Q 3438 3441 3638 3778 
Q 3806 4050 3828 4572 
L 3138 4572 
L 3138 4997 
z
M 709 3641 
L 1581 3641 
L 2038 4316 
L 1150 4316 
Q 934 3950 709 3641 
z
M 1913 1322 
L 2475 1322 
L 2475 2116 
L 1913 2116 
L 1913 1322 
z
M 2475 3272 
L 1913 3272 
L 1913 2484 
L 2475 2484 
L 2475 3272 
z
M 956 1322 
L 1506 1322 
L 1506 2116 
L 956 2116 
L 956 1322 
z
M 956 2484 
L 1506 2484 
L 1506 3272 
L 956 3272 
L 956 2484 
z
" transform="scale(0.015625)"/>
      <path id="MicrosoftYaHei-91ca" d="M 2806 4559 
L 2806 4984 
L 5944 4984 
L 5944 4572 
Q 5575 3828 4863 3284 
Q 5475 2984 6319 2884 
Q 6244 2741 6081 2391 
Q 5119 2597 4444 3003 
Q 3756 2584 2825 2316 
Q 2769 2453 2594 2766 
Q 3419 2978 4031 3284 
Q 3394 3803 3100 4559 
L 2806 4559 
z
M 88 534 
Q 744 1403 1113 2472 
L 144 2472 
L 144 2878 
L 1213 2878 
L 1213 4516 
Q 719 4478 244 4447 
Q 213 4659 156 4878 
Q 1513 4953 2431 5084 
L 2613 4634 
Q 2125 4591 1656 4553 
L 1656 2878 
L 2544 2878 
L 2544 2472 
L 1656 2472 
L 1656 1922 
L 1925 2116 
Q 2388 1659 2638 1366 
L 2288 1053 
Q 2050 1366 1656 1797 
L 1656 -828 
L 1213 -828 
L 1213 1753 
Q 838 791 281 34 
Q 200 291 88 534 
z
M 2556 697 
L 4200 697 
L 4200 1434 
L 2844 1434 
L 2844 1872 
L 4200 1872 
L 4200 2597 
L 4669 2597 
L 4669 1872 
L 6050 1872 
L 6050 1434 
L 4669 1434 
L 4669 697 
L 6319 697 
L 6319 259 
L 4669 259 
L 4669 -809 
L 4200 -809 
L 4200 259 
L 2556 259 
L 2556 697 
z
M 5450 4559 
L 3550 4559 
Q 3863 3922 4444 3522 
Q 5119 3966 5450 4559 
z
M 1800 3197 
Q 2113 3759 2294 4228 
L 2700 4059 
Q 2450 3503 2156 3016 
L 1800 3197 
z
M 188 4072 
L 550 4234 
Q 875 3609 1013 3247 
L 600 3047 
Q 394 3634 188 4072 
z
" transform="scale(0.015625)"/>
      <path id="MicrosoftYaHei-673a" d="M 3375 4434 
L 3375 2366 
Q 3375 128 2256 -878 
Q 2081 -666 1888 -453 
Q 2875 416 2875 2253 
L 2875 4909 
L 5200 4909 
L 5200 209 
Q 5200 -103 5419 -103 
L 5563 -103 
Q 5763 -103 5819 247 
Q 5881 728 5906 1284 
Q 6125 1178 6381 1084 
Q 6325 466 6269 72 
Q 6169 -591 5631 -591 
L 5300 -591 
Q 4700 -591 4700 122 
L 4700 4434 
L 3375 4434 
z
M 81 1403 
Q 781 2447 1078 3653 
L 144 3653 
L 144 4078 
L 1119 4078 
L 1119 5309 
L 1569 5309 
L 1569 4078 
L 2444 4078 
L 2444 3653 
L 1569 3653 
L 1569 2616 
L 1819 2866 
Q 2300 2428 2575 2153 
L 2238 1809 
Q 1853 2234 1569 2516 
L 1569 -784 
L 1119 -784 
L 1119 2566 
Q 784 1506 288 853 
Q 188 1134 81 1403 
z
" transform="scale(0.015625)"/>
      <path id="MicrosoftYaHei-5236" d="M 1906 5266 
L 2394 5266 
L 2394 4309 
L 3750 4309 
L 3750 3872 
L 2394 3872 
L 2394 3034 
L 4025 3034 
L 4025 2597 
L 2394 2597 
L 2394 1897 
L 3763 1897 
L 3763 409 
Q 3763 -266 3150 -272 
Q 2956 -278 2631 -272 
Q 2600 -72 2538 178 
Q 2844 159 3038 159 
Q 3300 159 3300 472 
L 3300 1472 
L 2394 1472 
L 2394 -847 
L 1906 -847 
L 1906 1472 
L 1044 1472 
L 1044 -378 
L 581 -378 
L 581 1897 
L 1906 1897 
L 1906 2597 
L 113 2597 
L 113 3034 
L 1906 3034 
L 1906 3872 
L 981 3872 
Q 822 3513 619 3191 
Q 413 3309 194 3428 
Q 688 4172 881 5041 
L 1344 4922 
Q 1263 4603 1159 4309 
L 1906 4309 
L 1906 5266 
z
M 5469 5272 
L 5969 5272 
L 5969 122 
Q 5969 -722 5225 -722 
Q 4981 -722 4388 -716 
Q 4350 -472 4288 -172 
Q 4813 -222 5075 -222 
Q 5469 -222 5469 222 
L 5469 5272 
z
M 4750 822 
L 4269 822 
L 4269 4672 
L 4750 4672 
L 4750 822 
z
" transform="scale(0.015625)"/>
      <path id="MicrosoftYaHei-ff0c" d="M 1931 775 
L 1403 -891 
L 966 -891 
L 1350 775 
L 1931 775 
z
" transform="scale(0.015625)"/>
      <path id="MicrosoftYaHei-4e0d" d="M 225 4772 
L 6181 4772 
L 6181 4284 
L 3881 4284 
Q 3581 3766 3081 3053 
L 3444 3053 
L 3444 -866 
L 2906 -866 
L 2906 2859 
Q 1838 1541 388 609 
Q 231 834 38 1059 
Q 2006 2291 3213 4284 
L 225 4284 
L 225 4772 
z
M 4069 2859 
Q 5238 2147 6325 1409 
L 5969 916 
Q 4681 1872 3763 2434 
L 4069 2859 
z
" transform="scale(0.015625)"/>
      <path id="MicrosoftYaHei-8bc1" d="M 1681 -34 
L 2550 -34 
L 2550 3422 
L 3031 3422 
L 3031 -34 
L 4025 -34 
L 4025 4534 
L 2025 4534 
L 2025 4997 
L 6200 4997 
L 6200 4534 
L 4525 4534 
L 4525 2653 
L 5975 2653 
L 5975 2191 
L 4525 2191 
L 4525 -34 
L 6300 -34 
L 6300 -497 
L 1681 -497 
L 1681 -34 
z
M 2050 1534 
Q 2075 1316 2169 991 
Q 1413 241 1025 -203 
L 669 203 
Q 856 466 856 828 
L 856 2784 
L 100 2784 
L 100 3234 
L 1338 3234 
L 1338 797 
Q 1625 1072 2050 1534 
z
M 706 5222 
Q 1438 4478 1731 4147 
L 1294 3778 
Q 900 4291 325 4891 
L 706 5222 
z
" transform="scale(0.015625)"/>
      <path id="MicrosoftYaHei-660e" d="M 2350 -872 
Q 2188 -691 1944 -491 
Q 2706 197 2950 853 
Q 3188 1472 3188 2816 
L 3188 5016 
L 5931 5016 
L 5931 -47 
Q 5931 -791 5213 -791 
Q 4769 -791 4150 -772 
Q 4113 -522 4056 -259 
Q 4675 -297 5056 -297 
Q 5438 -297 5438 72 
L 5438 1284 
L 3575 1284 
Q 3400 116 2350 -872 
z
M 475 4816 
L 2431 4816 
L 2431 566 
L 944 566 
L 944 109 
L 475 109 
L 475 4816 
z
M 3634 1734 
L 5438 1734 
L 5438 2922 
L 3681 2922 
Q 3688 2278 3634 1734 
z
M 5438 4547 
L 3681 4547 
L 3681 3372 
L 5438 3372 
L 5438 4547 
z
M 1963 1022 
L 1963 2491 
L 944 2491 
L 944 1022 
L 1963 1022 
z
M 1963 4359 
L 944 4359 
L 944 2934 
L 1963 2934 
L 1963 4359 
z
" transform="scale(0.015625)"/>
     </defs>
     <use xlink:href="#MicrosoftYaHei-89e3"/>
     <use xlink:href="#MicrosoftYaHei-91ca" transform="translate(100 0)"/>
     <use xlink:href="#MicrosoftYaHei-673a" transform="translate(200 0)"/>
     <use xlink:href="#MicrosoftYaHei-5236" transform="translate(300 0)"/>
     <use xlink:href="#MicrosoftYaHei-ff0c" transform="translate(400 0)"/>
     <use xlink:href="#MicrosoftYaHei-4e0d" transform="translate(500 0)"/>
     <use xlink:href="#MicrosoftYaHei-8bc1" transform="translate(600 0)"/>
     <use xlink:href="#MicrosoftYaHei-660e" transform="translate(700 0)"/>
     <use xlink:href="#MicrosoftYaHei-663e" transform="translate(800 0)"/>
     <use xlink:href="#MicrosoftYaHei-8457" transform="translate(900 0)"/>
     <use xlink:href="#MicrosoftYaHei-6027" transform="translate(1000 0)"/>
    </g>
   </g>
   <g id="text_4">
    <!-- 正确写法：单步说明机制，30 步说明时序行为，10-seed说明总体优势 -->
    <g style="fill: #e5edf7" transform="translate(219.106406 431.1045) scale(0.11 -0.11)">
     <defs>
      <path id="MicrosoftYaHei-6b63" d="M 88 66 
L 1106 66 
L 1106 3416 
L 1644 3416 
L 1644 66 
L 3231 66 
L 3231 4309 
L 375 4309 
L 375 4797 
L 6063 4797 
L 6063 4309 
L 3769 4309 
L 3769 2672 
L 5850 2672 
L 5850 2191 
L 3769 2191 
L 3769 66 
L 6313 66 
L 6313 -422 
L 88 -422 
L 88 66 
z
" transform="scale(0.015625)"/>
      <path id="MicrosoftYaHei-786e" d="M 2075 3453 
Q 2956 4334 3456 5359 
L 3931 5272 
Q 3781 4991 3619 4722 
L 5438 4722 
L 5438 4328 
L 4909 3666 
L 6063 3666 
L 6063 -53 
Q 6063 -728 5475 -728 
Q 5144 -728 4906 -716 
Q 4869 -497 4813 -259 
Q 5156 -291 5331 -291 
Q 5619 -291 5619 16 
L 5619 734 
L 4588 734 
L 4588 -659 
L 4144 -659 
L 4144 734 
L 3113 734 
Q 2944 -263 2444 -884 
Q 2288 -703 2081 -509 
Q 2756 291 2756 1841 
L 2756 3506 
Q 2597 3316 2431 3134 
Q 2281 3278 2075 3453 
z
M 31 1691 
Q 741 2834 1066 4291 
L 231 4291 
L 231 4716 
L 2469 4716 
L 2469 4291 
L 1509 4291 
Q 1356 3613 1128 2991 
L 2200 2991 
L 2200 128 
L 1150 128 
L 1150 -347 
L 738 -347 
L 738 2059 
Q 559 1691 350 1347 
Q 225 1497 31 1691 
z
M 1788 541 
L 1788 2578 
L 1150 2578 
L 1150 541 
L 1788 541 
z
M 4875 4322 
L 3366 4322 
Q 3138 3981 2884 3666 
L 4384 3666 
L 4875 4322 
z
M 4588 1134 
L 5619 1134 
L 5619 1991 
L 4588 1991 
L 4588 1134 
z
M 5619 3241 
L 4588 3241 
L 4588 2391 
L 5619 2391 
L 5619 3241 
z
M 3166 1134 
L 4144 1134 
L 4144 1991 
L 3200 1991 
Q 3200 1841 3166 1134 
z
M 3200 2391 
L 4144 2391 
L 4144 3241 
L 3200 3241 
L 3200 2391 
z
" transform="scale(0.015625)"/>
      <path id="MicrosoftYaHei-5199" d="M 1125 1853 
L 1125 2303 
L 1550 4303 
L 2075 4303 
L 1922 3559 
L 5588 3559 
L 5588 3097 
L 1828 3097 
L 1669 2322 
L 5750 2322 
Q 5688 1016 5606 172 
Q 5500 -722 4550 -728 
Q 3956 -728 3194 -697 
Q 3163 -447 3106 -153 
Q 3781 -228 4456 -228 
Q 5019 -228 5100 272 
Q 5163 872 5206 1853 
L 1125 1853 
z
M 369 4959 
L 6038 4959 
L 6038 3784 
L 5525 3784 
L 5525 4491 
L 881 4491 
L 881 3784 
L 369 3784 
L 369 4959 
z
M 113 1072 
L 4725 1072 
L 4725 609 
L 113 609 
L 113 1072 
z
" transform="scale(0.015625)"/>
      <path id="MicrosoftYaHei-6cd5" d="M 4888 1328 
Q 5488 509 6181 -553 
Q 5931 -697 5694 -841 
Q 5519 -550 5350 -278 
Q 3300 -447 2138 -559 
L 1906 -16 
Q 2300 159 2675 716 
Q 3088 1303 3441 1953 
L 1800 1953 
L 1800 2403 
L 3763 2403 
L 3763 3728 
L 2106 3728 
L 2106 4178 
L 3763 4178 
L 3763 5322 
L 4263 5322 
L 4263 4178 
L 5994 4178 
L 5994 3728 
L 4263 3728 
L 4263 2403 
L 6288 2403 
L 6288 1953 
L 4069 1953 
Q 3372 806 2706 -28 
Q 3897 28 5088 141 
Q 4766 644 4475 1066 
L 4888 1328 
z
M 1013 1828 
Q 1244 1728 1506 1622 
Q 1063 291 731 -784 
L 194 -603 
Q 606 497 1013 1828 
z
M 400 3622 
Q 869 3291 1500 2772 
Q 1269 2509 1138 2366 
Q 431 2997 88 3259 
L 400 3622 
z
M 644 5241 
Q 1144 4841 1719 4328 
Q 1506 4109 1350 3941 
Q 775 4509 325 4897 
L 644 5241 
z
" transform="scale(0.015625)"/>
      <path id="MicrosoftYaHei-ff1a" d="M 1606 3531 
Q 1772 3531 1890 3415 
Q 2009 3300 2009 3138 
Q 2009 2975 1893 2858 
Q 1778 2741 1606 2741 
Q 1434 2741 1318 2858 
Q 1203 2975 1203 3138 
Q 1203 3300 1322 3415 
Q 1441 3531 1606 3531 
z
M 1606 716 
Q 1772 716 1890 600 
Q 2009 484 2009 319 
Q 2009 150 1890 36 
Q 1772 -78 1606 -78 
Q 1441 -78 1322 36 
Q 1203 150 1203 319 
Q 1203 484 1322 600 
Q 1441 716 1606 716 
z
" transform="scale(0.015625)"/>
      <path id="MicrosoftYaHei-8bf4" d="M 5744 4072 
L 5744 1509 
L 5275 1509 
L 5275 1741 
L 4694 1741 
L 4694 109 
Q 4694 -247 5000 -247 
L 5425 -247 
Q 5688 -247 5731 47 
Q 5781 378 5794 872 
Q 6006 784 6300 684 
Q 6263 259 6194 -153 
Q 6106 -684 5525 -684 
L 4925 -684 
Q 4219 -684 4219 34 
L 4219 1741 
L 3563 1741 
Q 3547 719 3244 203 
Q 2900 -391 1913 -834 
Q 1775 -622 1613 -409 
Q 2488 -78 2806 428 
Q 3078 825 3097 1741 
L 2650 1741 
L 2650 1509 
L 2181 1509 
L 2181 4072 
L 4131 4072 
Q 4509 4616 4919 5328 
L 5400 5041 
Q 4988 4472 4669 4072 
L 5744 4072 
z
M 5275 3634 
L 2650 3634 
L 2650 2178 
L 5275 2178 
L 5275 3634 
z
M 2138 1166 
Q 2150 959 2206 641 
Q 1713 253 1238 -134 
Q 1094 -259 963 -422 
L 606 -28 
Q 800 172 800 547 
L 800 2778 
L 88 2778 
L 88 3234 
L 1281 3234 
L 1281 459 
Q 1700 791 2138 1166 
z
M 800 5272 
Q 1281 4797 1775 4247 
L 1350 3891 
Q 838 4553 438 4966 
L 800 5272 
z
M 2444 5059 
L 2806 5334 
Q 3350 4741 3581 4422 
L 3163 4128 
Q 2838 4584 2444 5059 
z
" transform="scale(0.015625)"/>
      <path id="MicrosoftYaHei-5e8f" d="M 1438 1966 
L 3634 1966 
Q 3053 2394 2525 2722 
L 2825 3041 
Q 3294 2756 3719 2478 
L 4850 3147 
L 1806 3147 
L 1806 3597 
L 5756 3597 
L 5756 3141 
L 4141 2191 
Q 4219 2138 4294 2084 
L 4128 1966 
L 6181 1966 
L 6181 1503 
L 5638 384 
Q 5450 484 5175 609 
L 5619 1509 
L 4119 1509 
L 4119 22 
Q 4119 -734 3400 -734 
Q 3019 -734 2463 -722 
Q 2438 -509 2388 -184 
Q 2881 -253 3250 -253 
Q 3606 -253 3606 103 
L 3606 1509 
L 1438 1509 
L 1438 1966 
z
M 2981 5147 
L 3431 5391 
Q 3675 5078 3881 4747 
L 3584 4572 
L 6244 4572 
L 6244 4116 
L 1263 4116 
L 1263 2416 
Q 1263 191 406 -872 
Q 256 -666 50 -447 
Q 738 353 738 2291 
L 738 4572 
L 3369 4572 
Q 3178 4884 2981 5147 
z
" transform="scale(0.015625)"/>
      <path id="MicrosoftYaHei-884c" d="M 2363 2978 
L 6319 2978 
L 6319 2509 
L 5106 2509 
L 5106 66 
Q 5106 -709 4325 -709 
Q 3800 -709 3256 -703 
Q 3219 -453 3163 -141 
Q 3650 -191 4144 -191 
Q 4575 -191 4575 234 
L 4575 2509 
L 2363 2509 
L 2363 2978 
z
M 100 1578 
Q 1069 2372 1863 3809 
L 2300 3541 
Q 1978 2984 1619 2500 
L 1619 -809 
L 1100 -809 
L 1100 1856 
Q 725 1431 319 1072 
Q 219 1334 100 1578 
z
M 2725 4866 
L 5969 4866 
L 5969 4397 
L 2725 4397 
L 2725 4866 
z
M 131 3559 
Q 1125 4328 1731 5347 
L 2181 5072 
Q 1456 3959 381 3078 
Q 269 3316 131 3559 
z
" transform="scale(0.015625)"/>
      <path id="MicrosoftYaHei-4e3a" d="M 356 3684 
L 2703 3684 
Q 2794 4450 2794 5341 
L 3331 5341 
Q 3331 4413 3244 3684 
L 5900 3684 
Q 5863 1753 5788 497 
Q 5725 -672 4550 -672 
Q 4063 -672 3394 -641 
Q 3369 -397 3300 -59 
Q 3888 -141 4456 -141 
Q 5206 -141 5244 597 
Q 5331 1822 5356 3197 
L 3175 3197 
Q 2716 441 606 -903 
Q 431 -684 225 -441 
Q 2169 706 2628 3197 
L 356 3197 
L 356 3684 
z
M 3325 2072 
L 3669 2378 
Q 4269 1822 4756 1284 
L 4369 934 
Q 3888 1503 3325 2072 
z
M 800 4922 
L 1138 5234 
Q 1656 4784 2138 4309 
L 1756 3953 
Q 1294 4459 800 4922 
z
" transform="scale(0.015625)"/>
      <path id="MicrosoftYaHei-603b" d="M 900 4253 
L 3631 4253 
Q 4022 4822 4331 5353 
L 4813 5103 
Q 4500 4675 4175 4253 
L 5500 4253 
L 5500 1703 
L 5000 1703 
L 5000 1978 
L 1400 1978 
L 1400 1703 
L 900 1703 
L 900 4253 
z
M 5000 3803 
L 1400 3803 
L 1400 2428 
L 5000 2428 
L 5000 3803 
z
M 1694 1378 
L 2181 1378 
L 2181 284 
Q 2181 -203 2619 -203 
L 3875 -203 
Q 4244 -203 4338 172 
Q 4394 366 4450 872 
Q 4631 791 4931 684 
Q 4850 209 4750 -97 
Q 4556 -641 3900 -641 
L 2519 -641 
Q 1694 -641 1694 197 
L 1694 1378 
z
M 719 1422 
L 1188 1272 
Q 931 491 538 -334 
Q 338 -247 81 -134 
Q 444 597 719 1422 
z
M 4881 1203 
L 5238 1478 
Q 5813 841 6319 197 
L 5900 -134 
Q 5456 491 4881 1203 
z
M 2663 1591 
L 3044 1841 
Q 3488 1372 3863 841 
L 3444 547 
Q 3069 1109 2663 1591 
z
M 1594 5109 
L 1975 5353 
Q 2350 4959 2650 4541 
L 2225 4266 
Q 1956 4653 1594 5109 
z
" transform="scale(0.015625)"/>
      <path id="MicrosoftYaHei-4f53" d="M 6350 778 
Q 6138 522 5981 316 
Q 4731 1278 4144 3572 
L 4144 934 
L 5063 934 
L 5063 484 
L 4144 484 
L 4144 -822 
L 3681 -822 
L 3681 484 
L 2763 484 
L 2763 934 
L 3681 934 
L 3681 3572 
L 3666 3572 
Q 3084 1413 1750 216 
Q 1606 397 1419 609 
Q 2625 1713 3225 3572 
L 1756 3572 
L 1756 4022 
L 3681 4022 
L 3681 5297 
L 4144 5297 
L 4144 4022 
L 6138 4022 
L 6138 3572 
L 4547 3572 
Q 5144 1628 6350 778 
z
M 56 2297 
Q 963 3622 1406 5316 
L 1881 5178 
Q 1638 4381 1331 3681 
L 1331 -816 
L 869 -816 
L 869 2741 
Q 588 2231 269 1784 
Q 175 2041 56 2297 
z
" transform="scale(0.015625)"/>
      <path id="MicrosoftYaHei-4f18" d="M 1825 3609 
L 3184 3609 
Q 3216 4322 3213 5272 
L 3713 5272 
Q 3719 4338 3688 3609 
L 6188 3609 
L 6188 3153 
L 4475 3153 
L 4475 228 
Q 4475 -122 4838 -122 
L 5244 -122 
Q 5656 -122 5700 303 
Q 5750 659 5781 1266 
Q 6031 1166 6294 1066 
Q 6244 528 6175 109 
Q 6100 -291 5900 -447 
Q 5713 -603 5275 -597 
L 4763 -597 
Q 4325 -597 4150 -422 
Q 3969 -259 3969 184 
L 3969 3153 
L 3663 3153 
Q 3600 791 1950 -803 
Q 1775 -597 1575 -397 
Q 3100 1028 3159 3153 
L 1825 3153 
L 1825 3609 
z
M 88 2334 
Q 1056 3641 1556 5291 
L 2063 5122 
Q 1753 4253 1388 3522 
L 1388 -809 
L 913 -809 
L 913 2666 
Q 616 2184 288 1778 
Q 194 2047 88 2334 
z
M 4600 5184 
Q 5269 4759 5713 4391 
Q 5538 4197 5388 3991 
Q 4875 4447 4325 4841 
L 4600 5184 
z
" transform="scale(0.015625)"/>
      <path id="MicrosoftYaHei-52bf" d="M 531 1472 
L 2522 1472 
Q 2544 1653 2544 1859 
L 3031 1859 
Q 3025 1656 3006 1472 
L 5550 1472 
Q 5506 709 5450 128 
Q 5375 -666 4475 -672 
Q 4019 -678 3269 -659 
Q 3231 -397 3163 -116 
Q 3906 -178 4463 -178 
Q 4925 -178 4969 222 
Q 5006 516 5038 1047 
L 2934 1047 
Q 2784 388 2400 28 
Q 1806 -541 469 -853 
Q 344 -647 169 -391 
Q 1519 -116 2031 372 
Q 2313 622 2438 1047 
L 531 1047 
L 531 1472 
z
M 2663 3347 
L 2881 3697 
Q 3144 3566 3388 3441 
Q 3472 3706 3500 4097 
L 2819 4097 
L 2819 4522 
L 3513 4522 
L 3513 5347 
L 3963 5347 
L 3963 4522 
L 5288 4522 
Q 5288 3303 5350 2853 
Q 5419 2347 5625 2347 
Q 5744 2347 5800 2641 
Q 5850 2928 5869 3322 
Q 6088 3228 6306 3153 
Q 6275 2772 6225 2509 
Q 6100 1816 5613 1816 
Q 5056 1816 4919 2584 
Q 4838 3066 4838 4097 
L 3950 4097 
Q 3922 3575 3806 3216 
Q 4247 2969 4606 2741 
L 4338 2322 
Q 4000 2559 3613 2797 
Q 3291 2284 2344 1772 
Q 2206 1978 2019 2172 
Q 2891 2600 3194 3047 
Q 2938 3197 2663 3347 
z
M 250 3184 
Q 616 3244 1313 3378 
L 1313 4041 
L 313 4041 
L 313 4466 
L 1313 4466 
L 1313 5353 
L 1763 5353 
L 1763 4466 
L 2513 4466 
L 2513 4041 
L 1763 4041 
L 1763 3469 
Q 2109 3538 2525 3622 
Q 2538 3284 2544 3178 
Q 2147 3100 1763 3022 
L 1763 2384 
Q 1763 1766 1163 1759 
Q 894 1753 500 1766 
Q 475 2016 425 2222 
Q 831 2191 1075 2191 
Q 1313 2191 1313 2441 
L 1313 2925 
Q 828 2819 363 2709 
L 250 3184 
z
" transform="scale(0.015625)"/>
     </defs>
     <use xlink:href="#MicrosoftYaHei-6b63"/>
     <use xlink:href="#MicrosoftYaHei-786e" transform="translate(100 0)"/>
     <use xlink:href="#MicrosoftYaHei-5199" transform="translate(200 0)"/>
     <use xlink:href="#MicrosoftYaHei-6cd5" transform="translate(300 0)"/>
     <use xlink:href="#MicrosoftYaHei-ff1a" transform="translate(400 0)"/>
     <use xlink:href="#MicrosoftYaHei-5355" transform="translate(500 0)"/>
     <use xlink:href="#MicrosoftYaHei-6b65" transform="translate(600 0)"/>
     <use xlink:href="#MicrosoftYaHei-8bf4" transform="translate(700 0)"/>
     <use xlink:href="#MicrosoftYaHei-660e" transform="translate(800 0)"/>
     <use xlink:href="#MicrosoftYaHei-673a" transform="translate(900 0)"/>
     <use xlink:href="#MicrosoftYaHei-5236" transform="translate(1000 0)"/>
     <use xlink:href="#MicrosoftYaHei-ff0c" transform="translate(1100 0)"/>
     <use xlink:href="#MicrosoftYaHei-33" transform="translate(1200 0)"/>
     <use xlink:href="#MicrosoftYaHei-30" transform="translate(1258.642578 0)"/>
     <use xlink:href="#MicrosoftYaHei-20" transform="translate(1317.285156 0)"/>
     <use xlink:href="#MicrosoftYaHei-6b65" transform="translate(1346.875 0)"/>
     <use xlink:href="#MicrosoftYaHei-8bf4" transform="translate(1446.875 0)"/>
     <use xlink:href="#MicrosoftYaHei-660e" transform="translate(1546.875 0)"/>
     <use xlink:href="#MicrosoftYaHei-65f6" transform="translate(1646.875 0)"/>
     <use xlink:href="#MicrosoftYaHei-5e8f" transform="translate(1746.875 0)"/>
     <use xlink:href="#MicrosoftYaHei-884c" transform="translate(1846.875 0)"/>
     <use xlink:href="#MicrosoftYaHei-4e3a" transform="translate(1946.875 0)"/>
     <use xlink:href="#MicrosoftYaHei-ff0c" transform="translate(2046.875 0)"/>
     <use xlink:href="#MicrosoftYaHei-31" transform="translate(2146.875 0)"/>
     <use xlink:href="#MicrosoftYaHei-30" transform="translate(2205.517578 0)"/>
     <use xlink:href="#MicrosoftYaHei-2d" transform="translate(2264.160156 0)"/>
     <use xlink:href="#MicrosoftYaHei-73" transform="translate(2307.421875 0)"/>
     <use xlink:href="#MicrosoftYaHei-65" transform="translate(2353.710938 0)"/>
     <use xlink:href="#MicrosoftYaHei-65" transform="translate(2410.449219 0)"/>
     <use xlink:href="#MicrosoftYaHei-64" transform="translate(2467.1875 0)"/>
     <use xlink:href="#MicrosoftYaHei-8bf4" transform="translate(2531.152344 0)"/>
     <use xlink:href="#MicrosoftYaHei-660e" transform="translate(2631.152344 0)"/>
     <use xlink:href="#MicrosoftYaHei-603b" transform="translate(2731.152344 0)"/>
     <use xlink:href="#MicrosoftYaHei-4f53" transform="translate(2831.152344 0)"/>
     <use xlink:href="#MicrosoftYaHei-4f18" transform="translate(2931.152344 0)"/>
     <use xlink:href="#MicrosoftYaHei-52bf" transform="translate(3031.152344 0)"/>
    </g>
   </g>
   <g id="text_5">
    <!-- 证据分层：机制解释与统计优势不能混用 -->
    <g style="fill: #e5edf7" transform="translate(247.32 19.99) scale(0.16 -0.16)">
     <defs>
      <path id="MicrosoftYaHei-Bold-8bc1" d="M 994 5334 
Q 1356 4822 1756 4184 
Q 1463 4028 1000 3734 
Q 663 4341 306 4903 
L 994 5334 
z
M 1875 278 
L 2388 278 
L 2388 3397 
L 3231 3397 
L 3231 278 
L 3906 278 
L 3906 4091 
L 2075 4091 
L 2075 4916 
L 6225 4916 
L 6225 4091 
L 4750 4091 
L 4750 2678 
L 6075 2678 
L 6075 1859 
L 4750 1859 
L 4750 278 
L 6300 278 
L 6300 -559 
L 1875 -559 
L 1875 278 
z
M 2019 1384 
Q 2044 1116 2169 528 
Q 1575 109 838 -516 
L 450 172 
Q 606 366 613 641 
L 613 2628 
L 113 2628 
L 113 3441 
L 1463 3441 
L 1463 947 
L 2019 1384 
z
" transform="scale(0.015625)"/>
      <path id="MicrosoftYaHei-Bold-636e" d="M 6294 1916 
L 4869 1916 
L 4869 1391 
L 5919 1391 
L 5919 -853 
L 5181 -853 
L 5181 -541 
L 3788 -541 
L 3788 -853 
L 3050 -853 
L 3050 1391 
L 4081 1391 
L 4081 1916 
L 2988 1916 
Q 2875 203 2188 -803 
Q 1925 -459 1625 -166 
Q 2250 928 2250 2803 
L 2250 5084 
L 6031 5084 
L 6031 3128 
L 4869 3128 
L 4869 2572 
L 6294 2572 
L 6294 1916 
z
M 169 4147 
L 763 4147 
L 763 5253 
L 1519 5253 
L 1519 4147 
L 2056 4147 
L 2056 3347 
L 1519 3347 
L 1519 2472 
Q 1788 2528 2088 2603 
Q 2056 2103 2063 1791 
Q 1788 1722 1519 1653 
L 1519 -59 
Q 1519 -753 950 -772 
Q 619 -803 313 -791 
Q 250 -422 131 22 
Q 338 16 550 9 
Q 763 3 763 309 
L 763 1459 
Q 463 1378 163 1303 
L 94 2166 
Q 375 2222 763 2303 
L 763 3347 
L 169 3347 
L 169 4147 
z
M 5263 3784 
L 5263 4428 
L 3013 4428 
L 3013 3784 
L 5263 3784 
z
M 5181 734 
L 3788 734 
L 3788 116 
L 5181 116 
L 5181 734 
z
M 4081 2572 
L 4081 3128 
L 3013 3128 
L 3013 2572 
L 4081 2572 
z
" transform="scale(0.015625)"/>
      <path id="MicrosoftYaHei-Bold-5206" d="M 6350 3028 
Q 6088 2703 5750 2228 
Q 5519 2409 5303 2603 
Q 5219 606 5172 190 
Q 5125 -225 4862 -451 
Q 4600 -678 4128 -678 
Q 3484 -678 2913 -659 
Q 2856 -141 2781 284 
Q 3594 216 3956 216 
Q 4172 216 4230 408 
Q 4288 600 4325 1978 
L 2781 1978 
Q 2728 1100 2529 631 
Q 2331 163 1907 -215 
Q 1484 -594 844 -872 
Q 456 -353 194 -78 
Q 750 144 1111 414 
Q 1472 684 1630 989 
Q 1788 1294 1841 1978 
L 950 1978 
L 950 2475 
Q 794 2356 631 2247 
Q 344 2653 63 2953 
Q 1475 3947 2194 5316 
L 3031 4953 
Q 2378 3722 1391 2841 
L 5047 2841 
Q 4088 3766 3463 4903 
L 4238 5303 
Q 5038 3922 6350 3028 
z
" transform="scale(0.015625)"/>
      <path id="MicrosoftYaHei-Bold-5c42" d="M 650 5072 
L 5975 5072 
L 5975 3166 
L 1525 3166 
Q 1519 2228 1475 1591 
L 6288 1591 
L 6288 878 
L 4806 878 
Q 5672 122 6194 -391 
L 5575 -903 
L 5244 -559 
Q 2244 -694 1838 -803 
L 1488 -128 
Q 1988 175 2528 878 
L 1400 878 
Q 1288 41 763 -778 
Q 388 -328 94 -41 
Q 356 419 500 1014 
Q 644 1609 650 3091 
L 650 5072 
z
M 5100 3878 
L 5100 4359 
L 1525 4359 
L 1525 3878 
L 5100 3878 
z
M 4119 553 
L 4509 878 
L 3528 878 
Q 3144 406 2838 53 
L 4563 119 
L 4119 553 
z
M 1825 2753 
L 5838 2753 
L 5838 2041 
L 1825 2041 
L 1825 2753 
z
" transform="scale(0.015625)"/>
      <path id="MicrosoftYaHei-Bold-ff1a" d="M 1594 3506 
Q 1831 3506 2000 3354 
Q 2169 3203 2169 2981 
Q 2169 2766 2003 2614 
Q 1838 2463 1594 2463 
Q 1353 2463 1189 2616 
Q 1025 2769 1025 2981 
Q 1025 3200 1192 3353 
Q 1359 3506 1594 3506 
z
M 1594 959 
Q 1831 959 2000 806 
Q 2169 653 2169 434 
Q 2169 222 2000 69 
Q 1831 -84 1594 -84 
Q 1356 -84 1190 69 
Q 1025 222 1025 434 
Q 1025 653 1190 806 
Q 1356 959 1594 959 
z
" transform="scale(0.015625)"/>
      <path id="MicrosoftYaHei-Bold-673a" d="M 81 1597 
Q 594 2397 841 3372 
L 138 3372 
L 138 4203 
L 856 4203 
L 856 5322 
L 1675 5322 
L 1675 4203 
L 2400 4203 
L 2400 3372 
L 1675 3372 
L 1675 2788 
Q 2072 2559 2538 2272 
L 2131 1566 
L 1675 1888 
L 1675 -809 
L 856 -809 
L 856 1388 
Q 647 919 369 491 
Q 269 903 81 1597 
z
M 5694 1634 
Q 5988 1503 6306 1391 
Q 6241 91 6181 -189 
Q 6122 -469 5961 -580 
Q 5800 -691 5525 -691 
L 5038 -691 
Q 4438 -691 4438 59 
L 4438 4159 
L 3550 4159 
L 3550 2409 
Q 3550 1031 3328 412 
Q 3106 -206 2531 -828 
Q 2238 -478 1875 -84 
Q 2391 466 2548 1023 
Q 2706 1581 2706 2941 
L 2706 5041 
L 5331 5041 
L 5331 316 
Q 5331 103 5469 103 
Q 5544 103 5580 151 
Q 5616 200 5648 562 
Q 5681 925 5694 1634 
z
" transform="scale(0.015625)"/>
      <path id="MicrosoftYaHei-Bold-5236" d="M 1113 -447 
L 363 -447 
L 363 1997 
L 1650 1997 
L 1650 2478 
L 119 2478 
L 119 3191 
L 1650 3191 
L 1650 3747 
L 978 3747 
Q 900 3472 813 3234 
Q 544 3353 163 3491 
Q 419 4241 588 5103 
L 1269 4966 
L 1163 4459 
L 1650 4459 
L 1650 5328 
L 2475 5328 
L 2475 4459 
L 3725 4459 
L 3725 3747 
L 2475 3747 
L 2475 3191 
L 3906 3191 
L 3906 2478 
L 2475 2478 
L 2475 1997 
L 3763 1997 
L 3763 303 
Q 3763 -47 3617 -245 
Q 3472 -444 3155 -455 
Q 2838 -466 2694 -466 
Q 2631 -128 2519 316 
Q 2681 297 2825 297 
Q 3013 297 3013 503 
L 3013 1278 
L 2475 1278 
L 2475 -853 
L 1650 -853 
L 1650 1278 
L 1113 1278 
L 1113 -447 
z
M 5213 5322 
L 6013 5322 
L 6013 159 
Q 6013 -309 5797 -546 
Q 5581 -784 5187 -796 
Q 4794 -809 4281 -809 
Q 4231 -441 4119 72 
Q 4613 41 4888 41 
Q 5213 41 5213 428 
L 5213 5322 
z
M 4094 4834 
L 4856 4834 
L 4856 653 
L 4094 653 
L 4094 4834 
z
" transform="scale(0.015625)"/>
      <path id="MicrosoftYaHei-Bold-89e3" d="M 3188 953 
L 4475 953 
L 4475 1641 
L 3888 1641 
Q 3769 1331 3619 1078 
Q 3288 1263 3013 1381 
L 3013 47 
Q 3013 -316 2888 -517 
Q 2763 -719 2517 -758 
Q 2272 -797 1963 -797 
L 1884 -403 
L 1406 -403 
L 1406 778 
L 1034 778 
Q 941 -281 656 -897 
Q 350 -516 69 -259 
Q 419 541 419 2078 
L 419 3113 
Q 359 3053 300 2997 
Q 225 3403 81 3866 
Q 725 4522 1075 5359 
L 1838 5259 
Q 1759 5072 1672 4891 
L 2806 4891 
L 2806 4303 
L 2488 3734 
L 3013 3734 
L 3013 1541 
Q 3384 2147 3488 2803 
L 4169 2709 
Q 4134 2513 4091 2328 
L 4475 2328 
L 4475 2853 
L 5263 2853 
L 5263 2328 
L 6131 2328 
L 6131 1641 
L 5263 1641 
L 5263 953 
L 6281 953 
L 6281 266 
L 5263 266 
L 5263 -822 
L 4475 -822 
L 4475 266 
L 3188 266 
L 3188 953 
z
M 963 3734 
L 1697 3734 
L 2000 4278 
L 1338 4278 
Q 1166 3997 963 3734 
z
M 2363 3134 
L 2006 3134 
L 2006 2541 
L 2363 2541 
L 2363 3134 
z
M 1081 2541 
L 1406 2541 
L 1406 3134 
L 1081 3134 
L 1081 2541 
z
M 2006 1366 
L 2363 1366 
L 2363 1953 
L 2006 1953 
L 2006 1366 
z
M 1072 1366 
L 1406 1366 
L 1406 1953 
L 1081 1953 
Q 1081 1909 1072 1366 
z
M 2363 778 
L 2006 778 
L 2006 -81 
Q 2231 -91 2297 -22 
Q 2363 47 2363 247 
L 2363 778 
z
M 4581 2978 
Q 4522 3366 4416 3697 
Q 4206 3203 3581 2816 
Q 3338 3153 3019 3484 
Q 3725 3841 3775 4416 
L 3194 4416 
L 3194 5097 
L 6119 5097 
Q 6103 3772 5973 3492 
Q 5844 3213 5614 3095 
Q 5384 2978 4581 2978 
z
M 4428 3725 
Q 4741 3709 4894 3709 
Q 5122 3709 5198 3821 
Q 5275 3934 5275 4416 
L 4581 4416 
Q 4544 4019 4428 3725 
z
" transform="scale(0.015625)"/>
      <path id="MicrosoftYaHei-Bold-91ca" d="M 100 747 
Q 584 1394 938 2191 
L 150 2191 
L 150 2891 
L 1025 2891 
L 1025 4284 
L 225 4216 
Q 169 4559 100 4916 
Q 1306 4978 2525 5128 
L 2675 4453 
L 1775 4353 
L 1775 3263 
Q 2050 3753 2231 4266 
L 2806 4041 
Q 2525 3478 2269 3022 
L 1775 3250 
L 1775 2891 
L 2613 2891 
L 2613 2191 
L 1775 2191 
L 1775 2022 
Q 2300 1650 2700 1334 
L 2225 741 
Q 2003 966 1775 1184 
L 1775 -809 
L 1025 -809 
L 1025 944 
Q 713 266 369 -216 
Q 231 328 100 747 
z
M 5988 5066 
L 5988 4303 
Q 5650 3747 5156 3319 
Q 5631 3150 6300 3059 
Q 6131 2684 5988 2303 
Q 5078 2459 4431 2816 
Q 3844 2494 3038 2253 
Q 2888 2622 2656 2997 
Q 3241 3144 3706 3334 
Q 3353 3659 3088 4078 
L 3500 4372 
L 2838 4372 
L 2838 5066 
L 5988 5066 
z
M 4422 3700 
Q 4878 3997 5125 4372 
L 3709 4372 
Q 4063 3956 4422 3700 
z
M 94 3984 
L 550 4184 
Q 788 3716 1000 3266 
L 463 3028 
Q 319 3459 94 3984 
z
M 2500 816 
L 4013 816 
L 4013 1266 
L 2775 1266 
L 2775 1991 
L 4013 1991 
L 4013 2434 
L 4838 2434 
L 4838 1991 
L 6050 1991 
L 6050 1266 
L 4838 1266 
L 4838 816 
L 6250 816 
L 6250 91 
L 4838 91 
L 4838 -822 
L 4013 -822 
L 4013 91 
L 2500 91 
L 2500 816 
z
" transform="scale(0.015625)"/>
      <path id="MicrosoftYaHei-Bold-4e0e" d="M 6138 3747 
L 2000 3747 
L 1956 3041 
L 5838 3041 
L 5738 541 
Q 5709 -169 5351 -453 
Q 4994 -738 4381 -741 
L 3031 -741 
Q 2956 -359 2813 166 
Q 3463 134 4081 134 
Q 4731 134 4784 526 
Q 4838 919 4863 2234 
L 969 2234 
L 1144 5272 
L 2094 5272 
L 2050 4566 
L 6138 4566 
L 6138 3747 
z
M 4456 766 
L 181 766 
L 181 1584 
L 4456 1584 
L 4456 766 
z
" transform="scale(0.015625)"/>
      <path id="MicrosoftYaHei-Bold-7edf" d="M 5569 1084 
Q 5944 897 6319 772 
Q 6234 -184 6023 -453 
Q 5813 -722 5356 -722 
L 4988 -722 
Q 4269 -722 4263 72 
L 4263 2066 
L 3756 2028 
Q 3722 656 3337 29 
Q 2953 -597 2406 -872 
Q 2144 -575 1788 -219 
Q 950 -303 213 -416 
L 144 416 
Q 763 459 2275 641 
Q 2259 406 2256 138 
Q 2938 591 2966 1950 
Q 2616 1909 2406 1866 
L 2181 2628 
Q 2675 2941 3250 3953 
L 2194 3953 
L 2194 4666 
L 3578 4666 
Q 3475 4916 3344 5191 
L 4275 5359 
Q 4444 5019 4597 4666 
L 6169 4666 
L 6169 3953 
L 4169 3953 
Q 3759 3316 3225 2697 
Q 4009 2725 4956 2781 
Q 4744 3103 4506 3434 
L 5131 3791 
Q 5794 2916 6269 2159 
L 5588 1747 
Q 5481 1938 5366 2131 
L 5063 2116 
L 5063 316 
Q 5063 72 5225 72 
L 5281 72 
Q 5428 72 5475 225 
Q 5522 378 5569 1084 
z
M 1256 1678 
L 2181 1784 
Q 2131 1397 2138 1072 
Q 1125 1022 431 897 
L 238 1591 
Q 597 1950 1113 2722 
Q 625 2688 306 2641 
L 81 3347 
Q 675 4159 1156 5359 
L 1975 5034 
Q 1519 4178 988 3422 
Q 1247 3425 1578 3444 
L 1863 3916 
L 2513 3566 
Q 1863 2541 1256 1678 
z
" transform="scale(0.015625)"/>
      <path id="MicrosoftYaHei-Bold-8ba1" d="M 1194 5334 
Q 1681 4678 2019 4172 
L 1219 3691 
Q 913 4241 463 4916 
L 1194 5334 
z
M 2175 3428 
L 3763 3428 
L 3763 5328 
L 4700 5328 
L 4700 3428 
L 6300 3428 
L 6300 2591 
L 4700 2591 
L 4700 -847 
L 3763 -847 
L 3763 2591 
L 2175 2591 
L 2175 3428 
z
M 2481 1341 
Q 2531 759 2588 416 
Q 1388 -366 1063 -722 
L 600 -109 
Q 756 78 756 416 
L 756 2422 
L 119 2422 
L 119 3234 
L 1588 3234 
L 1588 766 
Q 1844 916 2481 1341 
z
" transform="scale(0.015625)"/>
      <path id="MicrosoftYaHei-Bold-4f18" d="M 1406 5334 
L 2269 5084 
Q 1981 4238 1600 3491 
L 1600 0 
Q 2728 944 2850 2897 
L 1825 2897 
L 1825 3716 
L 2866 3716 
Q 2881 4513 2881 5303 
L 3719 5303 
Q 3719 5091 3700 3716 
L 6188 3716 
L 6188 2897 
L 4806 2897 
L 4806 472 
Q 4806 178 5031 178 
L 5150 178 
Q 5328 178 5372 301 
Q 5416 425 5506 1378 
Q 5881 1203 6288 1053 
Q 6191 291 6119 -23 
Q 6047 -338 5830 -470 
Q 5613 -603 5288 -603 
L 4756 -603 
Q 3969 -603 3969 266 
L 3969 2897 
L 3706 2897 
Q 3634 475 2194 -791 
Q 1875 -359 1600 -50 
L 1600 -797 
L 763 -797 
L 763 2131 
Q 547 1838 313 1566 
Q 219 2103 81 2697 
Q 844 3634 1406 5334 
z
M 4713 5278 
Q 5319 4922 5831 4503 
L 5300 3878 
Q 5019 4116 4231 4722 
L 4713 5278 
z
" transform="scale(0.015625)"/>
      <path id="MicrosoftYaHei-Bold-52bf" d="M 3400 -766 
Q 3325 -309 3244 34 
Q 4075 -9 4269 -9 
Q 4475 -9 4628 87 
Q 4781 184 4815 401 
Q 4850 619 4875 909 
L 3038 909 
Q 2613 -469 538 -909 
Q 275 -372 88 -72 
Q 1763 169 2134 909 
L 538 909 
L 538 1628 
L 2353 1628 
Q 2372 1741 2388 1866 
L 2675 1866 
Q 2475 2138 2231 2397 
Q 2709 2638 2988 2997 
Q 2753 3131 2519 3259 
L 2850 3797 
L 3288 3584 
Q 3347 3791 3363 4022 
L 2713 4022 
L 2713 4722 
L 3391 4722 
Q 3400 5069 3400 5328 
L 4163 5328 
Q 4163 5063 4153 4722 
L 5500 4722 
L 5488 3453 
Q 5488 2653 5644 2653 
Q 5731 2653 5800 3478 
Q 6063 3384 6350 3309 
Q 6213 1828 5550 1828 
Q 5166 1828 4970 2093 
Q 4775 2359 4761 2871 
Q 4747 3384 4744 4022 
L 4122 4022 
Q 4084 3609 3959 3247 
L 4669 2878 
L 4231 2234 
L 3641 2606 
Q 3359 2188 2919 1866 
L 3231 1866 
Q 3219 1747 3200 1628 
L 5781 1628 
L 5684 263 
Q 5656 -88 5492 -336 
Q 5328 -584 5012 -684 
Q 4697 -784 3400 -766 
z
M 200 3491 
L 1088 3566 
L 1088 3947 
L 313 3947 
L 313 4647 
L 1088 4647 
L 1088 5316 
L 1850 5316 
L 1850 4647 
L 2475 4647 
L 2475 3947 
L 1850 3947 
L 1850 3647 
L 2494 3722 
Q 2500 3372 2500 3009 
L 1850 2938 
L 1850 2753 
Q 1850 2391 1719 2162 
Q 1588 1934 1355 1854 
Q 1122 1775 419 1766 
Q 363 2128 281 2447 
Q 419 2428 763 2428 
Q 1088 2428 1088 2766 
L 1088 2853 
L 313 2766 
L 200 3491 
z
" transform="scale(0.015625)"/>
      <path id="MicrosoftYaHei-Bold-4e0d" d="M 350 4928 
L 6088 4928 
L 6088 4078 
L 3866 4078 
Q 3659 3556 3375 3072 
L 3675 3072 
L 3675 2341 
L 4300 2928 
Q 5144 2178 6338 1078 
L 5606 359 
Q 4809 1284 3675 2316 
L 3675 -853 
L 2731 -853 
L 2731 2141 
Q 1925 1138 725 303 
Q 525 591 88 1128 
Q 2069 2419 2813 4078 
L 350 4078 
L 350 4928 
z
" transform="scale(0.015625)"/>
      <path id="MicrosoftYaHei-Bold-80fd" d="M 2644 4797 
Q 3100 4172 3569 3447 
Q 3188 3222 2906 3066 
L 2731 3369 
L 319 3197 
L 100 3897 
Q 519 4116 1331 5353 
L 2125 5053 
L 1213 3947 
L 2353 3994 
Q 2200 4238 2044 4472 
L 2644 4797 
z
M 5513 3916 
Q 5981 3697 6288 3597 
Q 6200 3228 6114 2942 
Q 6028 2656 5798 2520 
Q 5569 2384 5200 2384 
L 4556 2384 
Q 3594 2384 3588 3322 
L 3588 5291 
L 4381 5291 
L 4381 4347 
Q 5153 4700 5681 5003 
L 6231 4366 
Q 5553 4056 4381 3616 
L 4381 3422 
Q 4381 3072 4800 3072 
L 5000 3072 
Q 5341 3072 5392 3269 
Q 5444 3466 5513 3916 
z
M 1213 -797 
L 431 -797 
L 431 2978 
L 3106 2978 
L 3106 41 
Q 3106 -325 2972 -525 
Q 2838 -725 2566 -759 
Q 2294 -794 1681 -784 
Q 1594 -422 1481 -41 
Q 1791 -59 1969 -59 
Q 2213 -59 2269 28 
Q 2325 116 2325 228 
L 2325 378 
L 1213 378 
L 1213 -797 
z
M 2325 2303 
L 1213 2303 
L 1213 1947 
L 2325 1947 
L 2325 2303 
z
M 1213 984 
L 2325 984 
L 2325 1341 
L 1213 1341 
L 1213 984 
z
M 5531 953 
Q 5913 797 6313 647 
Q 6194 -78 6081 -287 
Q 5969 -497 5750 -605 
Q 5531 -713 5206 -716 
L 4550 -716 
Q 3588 -716 3588 228 
L 3588 2216 
L 4381 2216 
L 4381 1438 
Q 5072 1781 5675 2147 
L 6225 1491 
Q 5372 1084 4381 672 
L 4381 353 
Q 4381 -28 4738 -28 
L 5000 -28 
Q 5275 -28 5365 90 
Q 5456 209 5531 953 
z
" transform="scale(0.015625)"/>
      <path id="MicrosoftYaHei-Bold-6df7" d="M 700 5253 
Q 1206 4891 1725 4447 
L 1163 3809 
Q 619 4347 181 4697 
L 700 5253 
z
M 1894 5066 
L 5875 5066 
L 5875 2353 
L 1894 2353 
L 1894 5066 
z
M 5069 4391 
L 2700 4391 
L 2700 3991 
L 5069 3991 
L 5069 4391 
z
M 5069 3028 
L 5069 3428 
L 2700 3428 
L 2700 3028 
L 5069 3028 
z
M 631 3591 
Q 1206 3178 1656 2784 
L 1069 2134 
Q 650 2547 88 3003 
L 631 3591 
z
M 5600 934 
Q 5988 753 6344 628 
Q 6225 -263 5983 -498 
Q 5741 -734 5275 -734 
L 4694 -734 
Q 3806 -734 3806 241 
L 3806 2209 
L 4619 2209 
L 4619 1509 
Q 5175 1806 5738 2141 
L 6250 1491 
Q 5475 1091 4619 728 
L 4619 316 
Q 4619 -47 4900 -47 
L 5088 -47 
Q 5259 -47 5359 9 
Q 5459 66 5495 205 
Q 5531 344 5600 934 
z
M 3613 991 
L 2706 991 
L 2706 297 
L 3538 666 
Q 3556 191 3613 -178 
Q 2550 -603 2081 -859 
L 1663 -228 
Q 1894 3 1894 322 
L 1894 2178 
L 2706 2178 
L 2706 1666 
L 3613 1666 
L 3613 991 
z
M 719 1909 
Q 1163 1734 1556 1628 
L 1013 -797 
Q 575 -653 150 -547 
Q 463 516 719 1909 
z
" transform="scale(0.015625)"/>
      <path id="MicrosoftYaHei-Bold-7528" d="M 5925 134 
Q 5925 -263 5744 -480 
Q 5563 -697 5189 -736 
Q 4816 -775 4206 -766 
Q 4100 -284 3956 141 
Q 4600 103 4656 103 
Q 5050 103 5050 484 
L 5050 1053 
L 3750 1053 
L 3750 -697 
L 2869 -697 
L 2869 1053 
L 1516 1053 
Q 1419 -325 988 -872 
Q 588 -584 181 -347 
Q 688 341 669 2097 
L 669 5041 
L 5925 5041 
L 5925 134 
z
M 1544 3441 
L 2869 3441 
L 2869 4216 
L 1544 4216 
L 1544 3441 
z
M 5050 4216 
L 3750 4216 
L 3750 3441 
L 5050 3441 
L 5050 4216 
z
M 1544 1859 
L 2869 1859 
L 2869 2634 
L 1544 2634 
L 1544 1859 
z
M 3750 1859 
L 5050 1859 
L 5050 2634 
L 3750 2634 
L 3750 1859 
z
" transform="scale(0.015625)"/>
     </defs>
     <use xlink:href="#MicrosoftYaHei-Bold-8bc1"/>
     <use xlink:href="#MicrosoftYaHei-Bold-636e" transform="translate(100 0)"/>
     <use xlink:href="#MicrosoftYaHei-Bold-5206" transform="translate(200 0)"/>
     <use xlink:href="#MicrosoftYaHei-Bold-5c42" transform="translate(300 0)"/>
     <use xlink:href="#MicrosoftYaHei-Bold-ff1a" transform="translate(400 0)"/>
     <use xlink:href="#MicrosoftYaHei-Bold-673a" transform="translate(500 0)"/>
     <use xlink:href="#MicrosoftYaHei-Bold-5236" transform="translate(600 0)"/>
     <use xlink:href="#MicrosoftYaHei-Bold-89e3" transform="translate(700 0)"/>
     <use xlink:href="#MicrosoftYaHei-Bold-91ca" transform="translate(800 0)"/>
     <use xlink:href="#MicrosoftYaHei-Bold-4e0e" transform="translate(900 0)"/>
     <use xlink:href="#MicrosoftYaHei-Bold-7edf" transform="translate(1000 0)"/>
     <use xlink:href="#MicrosoftYaHei-Bold-8ba1" transform="translate(1100 0)"/>
     <use xlink:href="#MicrosoftYaHei-Bold-4f18" transform="translate(1200 0)"/>
     <use xlink:href="#MicrosoftYaHei-Bold-52bf" transform="translate(1300 0)"/>
     <use xlink:href="#MicrosoftYaHei-Bold-4e0d" transform="translate(1400 0)"/>
     <use xlink:href="#MicrosoftYaHei-Bold-80fd" transform="translate(1500 0)"/>
     <use xlink:href="#MicrosoftYaHei-Bold-6df7" transform="translate(1600 0)"/>
     <use xlink:href="#MicrosoftYaHei-Bold-7528" transform="translate(1700 0)"/>
    </g>
   </g>
  </g>
 </g>
 <defs>
  <clipPath id="p9e450920c0">
   <rect x="7.2" y="35.99" width="768.24" height="415.91"/>
  </clipPath>
 </defs>
</svg>
